<svg width="164" height="167" viewBox="0 0 164 167" fill="none" xmlns="http://www.w3.org/2000/svg">
<path d="M139.93 39.8278L154.291 38.7925L146.37 49.3493L158.902 49.508L152.384 55.4048L163.691 57.6544L157.539 67.8736L144.995 59.5888L139.93 39.8278Z" fill="#2B2B22"/>
<path d="M118.985 110.728L117.038 125.367L116.191 125.424L116.841 110.445L118.985 110.728Z" fill="#EF5C3F"/>
<path d="M114.107 97.3518C114.107 100.747 113.38 111.55 116.992 113.199C122.509 115.718 123.614 99.3879 125.432 98.0759L114.107 97.3518Z" fill="#0C0B0A"/>
<path d="M71.6391 90.0535C71.6391 90.0535 54.2906 114.377 41.7631 109.32C19.0564 100.155 46.7183 61.3243 58.147 51.7621C80.3123 33.2175 147.535 37.5541 147.535 37.5541L144.161 46.7054L147.598 47.7408L146.33 54.4125L154.763 56.3388L148.98 63.5638L158.135 66.4542C158.135 66.4542 142.028 99.2089 114.285 103.059C88.2632 106.67 71.6391 90.0535 71.6391 90.0535Z" fill="#2B2B22"/>
<path d="M63.996 94.7012L58.3936 93.436L59.4783 88.0172L52.7933 88.1982L52.9744 80.6132H47.1929L47.7342 73.5692L41.914 71.824C33.0393 86.3269 27.5956 103.598 41.7655 109.318C49.352 112.379 58.703 104.672 64.9016 98.1123L63.996 94.7012Z" fill="#0C0B0A"/>
<path d="M69.7772 54.4242L67.4288 60.384L73.5725 63.2744L70.1395 69.0532L78.9938 73.9289L74.6572 80.2508L79.5351 84.9475L75.4203 93.1733C77.9152 95.0019 81.5884 97.335 86.275 99.3284L90.1945 90.1852L87.1237 84.2254L93.0863 73.931L88.2083 69.0553L90.919 61.4702L86.2201 55.3294L90.7379 46.8412L87.5449 40.4583C77.0239 42.3886 67.3026 45.3787 60.5586 49.9513L69.7772 54.4242Z" fill="#0C0B0A"/>
<path d="M134.286 45.0333L130.671 52.7994L136.996 57.134L135.551 66.3463L141.333 68.1526L142.055 78.447L148.74 77.725L147.491 82.2772C154.422 74.0006 162.819 63.1183 162.819 63.1183L152.727 61.6293L158.517 52.6997L146.329 54.4104L154.876 43.937L144.949 44.2685L147.926 36C147.926 36 140.592 37.1065 130.439 37.1147L134.286 45.0333Z" fill="#0C0B0A"/>
<path d="M76.2824 83.8657L70.8611 80.9753L75.3789 75.0154L67.2469 70.4998L69.9576 65.8031L63.8139 62.1906L66.3434 57.494C66.3434 57.494 61.2192 54.1092 57.896 51.9714C54.058 55.2565 48.5126 61.6679 43.6367 69.1024L49.7214 69.9567L49.3592 78.4449L54.9616 77.3607L54.5993 85.8489L62.5502 85.1268L61.4655 91.4487L67.6662 95.0368C70.1245 92.1749 71.6385 90.0513 71.6385 90.0513C71.6385 90.0513 72.0842 90.4968 72.947 91.227L76.2824 83.8657Z" fill="#0C0B0A"/>
<path d="M145.67 80.7946C145.67 79.8915 136.997 82.6009 136.997 82.6009L139.166 71.7633L130.493 70.3191L133.022 60.2057L126.156 53.1617L130.13 46.1177L126.301 37.1414C121.048 37.2105 115.167 37.4098 109.068 37.8431L115.674 47.3809L108.445 57.3153L116.937 64.5403L112.601 73.3906L118.745 77.1841L115.674 88.0217L122.721 91.6342L121.463 101.369C131.447 98.0415 139.605 91.1643 145.668 84.3868C145.67 82.7372 145.67 81.1831 145.67 80.7946Z" fill="#0C0B0A"/>
<path d="M119.108 92.5351L112.423 90.0068L115.134 79.3503L108.268 75.5567L112.063 65.6223L105.016 58.0372L109.171 48.8269L104.135 38.2437C99.9976 38.622 95.8157 39.1142 91.707 39.7529L94.8959 46.6607L89.2935 54.4267L94.5336 60.9276L91.1006 67.6096L97.2443 73.5694L89.8348 83.8639L93.4489 90.7268L88.9414 100.379C95.7424 102.856 104.326 104.439 114.285 103.055C115.531 102.882 116.752 102.651 117.951 102.368L119.108 92.5351Z" fill="#0C0B0A"/>
<path d="M117.037 125.367L111.384 130.834L110.892 130.167L115.177 125.983L109.087 126.606L109.072 125.611L115.059 125.161L110.131 123.528L110.812 122.859L116.52 124.911L117.037 125.367Z" fill="#EF5C3F"/>
<path d="M95.3537 125.729L89.6984 131.197L89.208 130.529L93.4937 126.343L87.4029 126.966L87.3887 125.973L93.3757 125.524L88.4469 123.89L89.1286 123.219L94.8368 125.273L95.3537 125.729Z" fill="#EF5C3F"/>
<path d="M97.3019 111.09L95.3544 125.73L94.5078 125.787L95.157 110.808L97.3019 111.09Z" fill="#EF5C3F"/>
<path d="M92.1809 97.1111C92.1809 100.506 91.4544 111.309 95.0666 112.959C100.584 115.477 101.689 99.1472 103.506 97.8352L92.1809 97.1111Z" fill="#0C0B0A"/>
<path d="M37.486 106.092C37.486 106.092 35.7888 116.067 37.7139 118.158C38.1291 118.61 42.5003 111.853 42.5003 111.853C42.5003 111.853 43.4506 117.642 43.9471 117.654C45.4123 117.695 48.0151 109.367 48.0151 109.367C48.0151 109.367 48.1698 107.608 44.7143 106.149C40.4062 104.331 37.486 106.092 37.486 106.092Z" fill="#E8B618"/>
<path d="M33.4612 100.435C33.4612 100.435 33.1295 98.8387 33.6423 94.2946C34.3566 87.9605 35.6835 84.95 35.6835 84.95C35.6835 84.95 33.2821 75.872 28.9455 77.4992C27.0162 78.2213 27.8608 82.5559 27.8608 82.5559C27.8608 82.5559 25.3313 81.8338 24.2466 86.1684C23.5404 88.9938 26.595 92.8504 26.595 92.8504C26.595 92.8504 22.9014 92.5208 25.1501 97.366C26.0354 99.276 33.4612 100.435 33.4612 100.435Z" fill="#EF5C3F"/>
<path d="M27.7713 88.0213C27.8792 86.7927 29.2996 85.2509 28.8967 84.0243C28.5568 82.991 27.3989 83.2168 26.6602 83.6989C24.5072 84.5878 25.3538 88.8634 26.7254 90.2831C28.276 91.8941 27.7001 88.8349 27.7713 88.0213Z" fill="#ED7454"/>
<path d="M26.645 94.14C24.7626 93.7617 25.481 96.3083 26.2421 97.0324C26.7244 97.4901 29.3739 99.1438 29.6995 97.9152C29.8786 97.2419 28.7126 96.9226 28.3931 96.4893C27.9677 95.9096 28.1753 95.4316 28.0105 94.7828C27.689 93.5135 25.2917 93.5583 25.2754 95.1041C25.2693 95.6452 25.8819 96.294 26.3235 96.1476L26.645 94.14Z" fill="#ED7454"/>
<path d="M41.7453 96.6667C42.4309 96.6667 42.9866 96.1111 42.9866 95.4259C42.9866 94.7406 42.4309 94.1851 41.7453 94.1851C41.0597 94.1851 40.5039 94.7406 40.5039 95.4259C40.5039 96.1111 41.0597 96.6667 41.7453 96.6667Z" fill="#564336"/>
<path d="M42.1455 95.9079C42.1455 96.2619 41.8585 96.5507 41.5024 96.5507C41.1483 96.5507 40.8594 96.2639 40.8594 95.9079C40.8594 95.554 41.1463 95.2651 41.5024 95.2651C41.8585 95.2651 42.1455 95.552 42.1455 95.9079Z" fill="white"/>
<path d="M120.375 48.78C120.375 48.78 98.3298 44.9864 88.2117 52.2115C79.0562 58.7469 75.9243 75.6908 93.8141 81.4696C111.702 87.2484 129.592 71.3561 129.592 71.3561L121.281 70.453L128.869 63.9501L118.751 61.0597L124.714 58.3503L116.041 53.4746L120.375 48.78Z" fill="#4C4C3B"/>
<path d="M84.2373 63.1699C85.4034 63.1495 86.7567 62.8953 87.8231 62.4071C88.1751 62.2444 87.8699 61.7258 87.5199 61.8865C86.5593 62.3278 85.2854 62.5495 84.2394 62.5678C83.8487 62.5739 83.8466 63.176 84.2373 63.1699Z" fill="#0C0B0A"/>
<path d="M87.4905 58.4728C88.7644 58.4647 90.1259 58.3467 91.2574 57.71C91.5952 57.5188 91.292 57.0001 90.9541 57.1893C89.9183 57.7731 88.6586 57.8626 87.4925 57.8707C87.1018 57.8748 87.1018 58.4769 87.4905 58.4728Z" fill="#0C0B0A"/>
<path d="M92.3677 52.8755C93.8817 52.8572 95.3693 52.5297 96.8854 52.5135C97.2741 52.5094 97.2741 51.9073 96.8854 51.9114C95.3714 51.9277 93.8817 52.2552 92.3677 52.2735C91.979 52.2775 91.979 52.8796 92.3677 52.8755Z" fill="#0C0B0A"/>
<path d="M96.3443 57.2106C97.6731 57.1923 98.9898 56.8709 100.319 57.0295C100.703 57.0763 100.699 56.4722 100.319 56.4274C98.9877 56.2667 97.6731 56.5881 96.3443 56.6084C95.9556 56.6125 95.9556 57.2146 96.3443 57.2106Z" fill="#0C0B0A"/>
<path d="M92.9107 63.8929C94.4491 63.9011 95.9937 64.0516 97.5078 63.7017C97.8863 63.6142 97.7255 63.0345 97.347 63.122C95.8879 63.4597 94.3901 63.301 92.9107 63.2908C92.522 63.2888 92.522 63.8909 92.9107 63.8929Z" fill="#0C0B0A"/>
<path d="M86.0419 71.6584C87.3973 71.6584 88.7506 71.6482 90.0977 71.4672C90.4803 71.4163 90.3175 70.8345 89.937 70.8874C88.6468 71.0603 87.3403 71.0563 86.0419 71.0563C85.6553 71.0563 85.6553 71.6584 86.0419 71.6584Z" fill="#0C0B0A"/>
<path d="M91.645 77.2586C93.2792 77.2423 94.8889 76.9148 96.523 76.8965C96.9117 76.8924 96.9117 76.2904 96.523 76.2945C94.8889 76.3107 93.2792 76.6382 91.645 76.6565C91.2563 76.6606 91.2563 77.2626 91.645 77.2586Z" fill="#0C0B0A"/>
<path d="M101.663 79.2329C103.529 78.8627 105.407 78.5575 107.265 78.1487C107.644 78.0653 107.483 77.4856 107.104 77.569C105.246 77.9758 103.368 78.2829 101.502 78.6531C101.121 78.7284 101.284 79.3081 101.663 79.2329Z" fill="#0C0B0A"/>
<path d="M97.2466 71.4777C98.9397 71.4614 100.61 71.1298 102.306 71.1156C102.694 71.1115 102.694 70.5094 102.306 70.5134C100.61 70.5277 98.9397 70.8592 97.2466 70.8755C96.8579 70.8796 96.8579 71.4817 97.2466 71.4777Z" fill="#0C0B0A"/>
<path d="M108.811 72.0198C109.2 72.0198 109.2 71.4177 108.811 71.4177C108.422 71.4177 108.422 72.0198 108.811 72.0198Z" fill="#0C0B0A"/>
<path d="M108.81 72.0209C110.178 72.0026 111.527 71.671 112.756 71.077C113.106 70.9082 112.801 70.3895 112.453 70.5563C111.32 71.1035 110.068 71.4005 108.81 71.4188C108.424 71.4229 108.422 72.025 108.81 72.0209Z" fill="#0C0B0A"/>
<path d="M102.486 66.9636C103.97 66.7785 105.449 66.5833 106.902 66.2314C107.279 66.1399 107.12 65.5582 106.742 65.6518C105.34 65.9935 103.915 66.1846 102.484 66.3636C102.106 66.4084 102.102 67.0104 102.486 66.9636Z" fill="#0C0B0A"/>
<path d="M108.811 62.4476C110.201 62.4476 111.585 62.4313 112.967 62.2665C113.347 62.2218 113.351 61.6177 112.967 61.6644C111.585 61.8292 110.201 61.8455 108.811 61.8455C108.422 61.8455 108.422 62.4476 108.811 62.4476Z" fill="#0C0B0A"/>
<path d="M99.7759 60.0989C100.679 60.0989 101.583 60.0989 102.487 60.0989C102.875 60.0989 102.875 59.4968 102.487 59.4968C101.583 59.4968 100.679 59.4968 99.7759 59.4968C99.3872 59.4968 99.3872 60.0989 99.7759 60.0989Z" fill="#0C0B0A"/>
<path d="M107.366 57.2103C108.841 57.2103 110.347 57.2245 111.782 56.838C112.156 56.7363 111.998 56.1565 111.621 56.2583C110.237 56.6305 108.786 56.6081 107.364 56.6081C106.977 56.6081 106.977 57.2103 107.366 57.2103Z" fill="#0C0B0A"/>
<path d="M101.584 53.5977C103.219 53.5895 104.84 53.4166 106.462 53.2356C106.845 53.1929 106.849 52.5908 106.462 52.6335C104.84 52.8125 103.217 52.9854 101.584 52.9956C101.196 52.9976 101.196 53.5997 101.584 53.5977Z" fill="#0C0B0A"/>
<path d="M106.643 50.3472C107.032 50.3472 107.032 49.7451 106.643 49.7451C106.254 49.7451 106.254 50.3472 106.643 50.3472Z" fill="#0C0B0A"/>
<path d="M106.743 50.3352C108.703 50.7095 110.725 50.7095 112.685 50.3352C113.066 50.2619 112.905 49.6822 112.524 49.7554C110.679 50.1094 108.749 50.1094 106.902 49.7554C106.523 49.6822 106.362 50.2619 106.743 50.3352Z" fill="#0C0B0A"/>
<path d="M113.971 56.838C115.335 57.2041 116.765 57.1939 118.127 57.56C118.503 57.6618 118.662 57.08 118.288 56.9804C116.924 56.6142 115.494 56.6244 114.132 56.2583C113.756 56.1566 113.597 56.7363 113.971 56.838Z" fill="#0C0B0A"/>
<path d="M115.858 65.6982C117.117 65.682 118.477 65.4765 119.624 64.9355C119.974 64.7687 119.669 64.25 119.321 64.4147C118.275 64.909 117.005 65.0819 115.86 65.0962C115.469 65.1023 115.469 65.7043 115.858 65.6982Z" fill="#0C0B0A"/>
<path d="M114.854 75.2601C115.967 75.0628 117.037 74.7129 118.106 74.357C118.472 74.2349 118.315 73.6532 117.945 73.7773C116.874 74.1332 115.804 74.4831 114.693 74.6804C114.31 74.7475 114.473 75.3273 114.854 75.2601Z" fill="#0C0B0A"/>
<path d="M110.518 80.1358C111.83 79.908 113.037 79.4524 114.083 78.6144C114.386 78.3703 113.957 77.9472 113.658 78.1893C112.697 78.9601 111.558 79.3486 110.357 79.5561C109.974 79.6212 110.137 80.2029 110.518 80.1358Z" fill="#0C0B0A"/>
<path d="M121.54 75.0799C122.673 74.8704 123.711 74.37 124.792 73.9957C125.156 73.8696 124.999 73.2879 124.631 73.416C123.55 73.7903 122.512 74.2907 121.379 74.5002C120.998 74.5693 121.161 75.149 121.54 75.0799Z" fill="#0C0B0A"/>
<path d="M36.0438 125.709C34.9408 126.514 34.5928 128.115 33.0991 128.249C30.244 128.504 30.0201 123.902 27.0673 125.528C25.9989 126.118 25.6733 127.293 24.5703 128.024C23.0644 129.02 21.8597 128.274 21.0375 126.984C19.5459 124.643 19.2793 121.571 15.3212 122.035C13.7359 122.22 12.5271 123.589 11.768 124.985C11.0944 126.221 11.1372 126.992 10.1054 128.032C8.78065 129.364 7.64509 128.487 6.17581 128.021C5.37809 127.769 4.80014 127.672 4.23847 127.706C2.48225 127.464 0.198969 128.101 0.0219227 129.502C-0.234489 131.536 1.82088 130.751 2.92182 130.46C4.60275 130.015 5.31907 129.708 6.89214 130.46C8.26171 131.115 9.00043 132.088 10.5104 130.967C11.5808 130.174 12.0122 128.467 12.7245 127.385C17.6736 119.863 19.3627 133.796 24.8369 130.826C25.9338 130.23 26.6766 128.888 27.8487 128.43C29.8593 127.643 30.0384 129.201 31.2961 130.2C33.152 131.677 38.2416 130.359 39.2347 127.816C40.1993 125.347 37.6087 124.566 36.0438 125.709Z" fill="#EF5C3F"/>
<path d="M37.2497 125.468C37.2497 125.8 36.979 126.07 36.6473 126.07C36.3156 126.07 36.0449 125.8 36.0449 125.468C36.0449 125.137 36.3156 124.866 36.6473 124.866C36.979 124.866 37.2497 125.135 37.2497 125.468Z" fill="#0C0B0A"/>
<path d="M38.8747 127.094C38.8747 127.426 38.606 127.696 38.2723 127.696C37.9406 127.696 37.6699 127.426 37.6699 127.094C37.6699 126.762 37.9406 126.492 38.2723 126.492C38.604 126.492 38.8747 126.76 38.8747 127.094Z" fill="#0C0B0A"/>
</svg>
