<svg width="164" height="167" viewBox="0 0 164 167" fill="none" xmlns="http://www.w3.org/2000/svg">
<path d="M92.5293 148.418L105.377 156.111L106.027 154.649L95.9541 148.642L107.813 149.455L107.65 147.992L96.2803 147.343L103.751 145.233L102.451 144.258L92.7046 147.18L92.5293 148.418Z" fill="#EF5C3F"/>
<path d="M63.9375 153.289L73.3747 163.904L74.3483 162.768L67.2017 154.649L78.0847 156.598L78.2478 154.812L67.5279 153.189L76.6243 150.914L75.4875 149.615L64.9282 152.539L63.9375 153.289Z" fill="#EF5C3F"/>
<path d="M62.4219 126.66L63.9383 153.289L65.4548 153.506L66.3214 126.443L62.4219 126.66Z" fill="#EF5C3F"/>
<path d="M91.0137 121.789L92.5301 148.418L94.0466 148.635L94.9132 121.572L91.0137 121.789Z" fill="#EF5C3F"/>
<path d="M73.9 110.207L52.998 106.743C55.0792 113.786 54.405 122.153 58.7645 128.499C60.7824 131.438 63.903 133.46 67.4861 131.934C70.6967 130.567 71.3028 126.054 72.033 123.01C73.0456 118.784 72.8655 114.12 74.2335 110.027C74.1386 110.198 74.0461 110.125 73.9 110.207Z" fill="#E6C554"/>
<path d="M102.058 111.073L81.1562 107.609C83.2374 114.652 82.5632 123.02 86.9227 129.367C88.9406 132.306 92.0612 134.328 95.6443 132.803C98.8549 131.435 99.461 126.922 100.191 123.878C101.204 119.652 101.024 114.988 102.392 110.896C102.297 111.064 102.202 110.991 102.058 111.073Z" fill="#E6C554"/>
<path d="M16.0703 76.7585C16.0703 76.7585 10.221 67.8828 11.0876 67.8828C11.9541 67.8828 19.1008 68.0994 19.1008 68.0994L16.2845 58.3576L27.9805 60.7395L23.6478 51.8639L35.1272 49.6985L36.2104 65.5033L16.0703 76.7585Z" fill="#E6C554"/>
<path d="M39.8961 46.4477L94.0459 49.9123C94.0459 49.9123 105.951 18.0909 116.788 12.675C123.718 9.21043 142.997 11.5924 142.78 28.0468C142.629 39.5525 141.1 87.4075 127.401 100.139C105.742 120.273 76.9339 118.11 57.0056 112.696C25.2523 104.071 13.252 74.1597 13.252 74.1597L19.3178 73.5101L15.4183 64.851L26.4645 65.5006L23.2149 55.9754L31.6614 58.1408L29.0617 46.0171L39.8961 46.4477Z" fill="#F6D870"/>
<path d="M44.2266 77.1911C44.2266 77.1911 63.1885 64.3229 78.8814 60.7367C94.0437 57.272 110.574 73.2594 100.107 84.7675C89.2777 96.6747 56.3535 94.2928 56.3535 94.2928L59.8197 86.4998L48.9902 86.2833L52.8897 78.0573L44.2266 77.1911Z" fill="#F9E9B1"/>
<path d="M110.939 17.8694C110.939 17.8694 114.386 14.0155 123.935 13.1056C133.031 12.2394 136.498 15.0544 136.498 15.0544C136.498 15.0544 136.381 4.43674 131.732 3.36378C126.099 2.06455 125.666 4.66301 125.666 4.66301C125.666 4.66301 124.366 2.28109 120.9 3.58032C117.433 4.87955 117 7.26147 117 7.26147C117 7.26147 114.401 6.61186 112.234 8.5607C110.073 10.5095 110.939 17.8694 110.939 17.8694Z" fill="#EF5C3F"/>
<path d="M141.76 25.4487C141.76 25.4487 140.774 27.8307 140.609 31.2953C140.443 34.7599 141.925 37.3583 141.925 37.3583C141.925 37.3583 152.288 33.2441 152.288 31.2953C152.288 29.3464 141.76 25.4487 141.76 25.4487Z" fill="#E8B618"/>
<path d="M131.408 22.8507C131.408 23.6877 130.729 24.3665 129.891 24.3665C129.054 24.3665 128.375 23.6877 128.375 22.8507C128.375 22.0138 129.054 21.335 129.891 21.335C130.729 21.335 131.408 22.0138 131.408 22.8507Z" fill="#564336"/>
<path d="M142.669 21.9837C142.669 22.7598 142.039 23.39 141.262 23.39C140.486 23.39 139.855 22.7598 139.855 21.9837C139.855 21.2075 140.486 20.5774 141.262 20.5774C142.039 20.5774 142.669 21.2075 142.669 21.9837Z" fill="#564336"/>
<path d="M114.834 8.56085C114.398 8.68493 114.087 8.90877 113.841 9.18127C112.298 10.1058 111.475 11.9403 112.48 13.8527C113.447 12.8624 113.493 12.0206 115.056 11.5899C115.978 11.3369 117.407 11.1228 117.439 9.86008C117.47 8.52679 115.871 8.26646 114.834 8.56085Z" fill="#ED7454"/>
<path d="M122.419 4.2302C121.632 4.15965 120.07 4.62192 119.432 5.44184C118.955 5.82869 118.619 6.32016 118.604 6.93572C118.553 9.03297 121.148 7.48314 122.122 6.96248C123.38 6.29097 124.714 4.43944 122.419 4.2302Z" fill="#ED7454"/>
<path d="M107.326 49.5974L112.036 45.8627L110.41 44.4029L108.786 46.3493L108.462 44.0769H106.35L107.326 49.5974Z" fill="#F9E9B1"/>
<path d="M115.933 77.0381L120.645 73.3034L119.019 71.8436L117.396 73.7924L117.072 71.5176H114.959L115.933 77.0381Z" fill="#F9E9B1"/>
<path d="M118.369 45.7031L119.754 54.7977L125.526 47.7761L122.777 47.0705L121.351 49.4402L120.618 45.9391L118.369 45.7031Z" fill="#F9E9B1"/>
<path d="M126.229 76.335L127.56 84.1961L132.84 76.7973L130.05 76.2791L128.789 78.7413L127.82 75.2986L126.229 76.335Z" fill="#F9E9B1"/>
<path d="M131.748 62.1938L134.031 69.831L138.369 61.8434L135.536 61.6707L134.586 64.2667L133.204 60.9675L131.748 62.1938Z" fill="#F9E9B1"/>
<path d="M122.033 61.1647L124.314 68.8019L128.652 60.8144L125.818 60.6416L124.869 63.2376L123.486 59.9385L122.033 61.1647Z" fill="#F9E9B1"/>
<path d="M110.336 56.7809L112.617 64.4182L116.954 56.4306L114.123 56.2578L113.172 58.8539L111.789 55.5571L110.336 56.7809Z" fill="#F9E9B1"/>
<path d="M129.484 50.6806L131.704 57.7606L135.83 50.357L133.192 50.2037L132.191 52.6246L131.539 50.0894L129.484 50.6806Z" fill="#F9E9B1"/>
<path d="M117.197 86.1985L116.406 93.5778L123.144 88.432L120.785 87.2398L118.904 89.0597L119.315 86.4759L117.197 86.1985Z" fill="#F9E9B1"/>
<path d="M76.6256 64.3745L72.0762 69.2454L79.3859 69.4084L78.0861 67.4596L75.8126 67.7832L77.5993 65.8368L76.6256 64.3745Z" fill="#F6D870"/>
<path d="M80.1979 72.8167L74.5117 76.3883L82.3082 78.1741L81.4977 76.5513L78.898 75.9017L80.8478 74.7655L80.1979 72.8167Z" fill="#F6D870"/>
<path d="M83.7701 82.7209L79.2207 85.969L85.8829 87.7549L85.233 85.806L82.4703 85.48L84.5831 84.6698L83.7701 82.7209Z" fill="#F6D870"/>
<path d="M66.8785 67.4595L63.6289 71.1941L68.502 71.6808L68.339 69.8949H66.5523L67.5284 68.7587L66.8785 67.4595Z" fill="#F6D870"/>
<path d="M68.8272 74.7651L64.6016 77.6872L71.5876 79.3124L70.9376 77.3636H68.338L70.1246 75.9014L68.8272 74.7651Z" fill="#F6D870"/>
<path d="M72.5616 82.7209L68.1777 86.9422L75.4875 88.2415L74.8375 86.1296L71.9117 85.969L73.8615 84.6698L72.5616 82.7209Z" fill="#F6D870"/>
<path d="M83.9332 61.2898L80.6836 65.0245L85.8829 65.9977L85.233 64.2118H83.607L84.42 62.9126L83.9332 61.2898Z" fill="#F6D870"/>
<path d="M88.9703 70.0571L84.584 74.439L90.9176 75.5776L90.2677 73.7918H87.6705L89.7809 72.3296L88.9703 70.0571Z" fill="#F6D870"/>
<path d="M92.8673 79.1499L87.9941 83.3712L94.654 84.3444L94.004 82.235H91.5675L93.1935 80.7727L92.8673 79.1499Z" fill="#F6D870"/>
</svg>
