<svg width="164" height="161" viewBox="0 0 164 161" fill="none" xmlns="http://www.w3.org/2000/svg">
<path d="M102.946 152.865L92.5781 158.438L93.542 159.192L102.464 155.425L100.292 161.001H102.223L104.873 156.028L110.418 160.397L111.864 159.946L105.596 153.165L102.946 152.865Z" fill="#EF5C3F"/>
<path d="M66.2986 152.284L64.3708 152.671L52.3164 155.769L53.0393 156.933L63.4069 155.188L59.0665 159.837H61.2353L64.8528 155.769L68.7112 159.837L69.6751 159.45L66.2986 152.284Z" fill="#EF5C3F"/>
<path d="M100.777 129.748L103.669 156.092L105.838 156.285V128.78L100.777 129.748Z" fill="#EF5C3F"/>
<path d="M61.7207 130.136L64.6125 154.737L66.5403 154.93L66.0583 129.555L61.7207 130.136Z" fill="#EF5C3F"/>
<path d="M40.7442 68.4111C37.3678 68.7983 28.6899 70.3471 21.4579 72.6727C14.2259 74.9982 5.78619 80.8085 5.78619 80.8085L9.64458 81.7765L0 88.1677L9.16265 89.1357L3.1355 93.7844L11.8162 94.3652L6.02999 99.2075C6.02999 99.2075 13.503 101.339 24.8343 100.176C36.1657 99.0139 47.4971 94.946 47.4971 94.946L40.7442 68.4111Z" fill="#D6CFC1"/>
<path d="M48.6981 117.999C38.994 113.294 31.5806 97.0789 30.6167 85.071C29.6528 73.0609 31.8216 56.2106 31.3396 49.6236C30.8577 43.0366 20.2492 27.5416 24.5896 18.6313C28.9299 9.72106 47.2523 6.23395 58.5836 12.4338C79.6701 23.9679 81.7282 41.2941 86.0686 51.3683C86.0686 51.3683 115.481 53.6938 129.707 57.5659C139.746 60.2991 149.96 63.3762 149.96 63.3762L145.379 66.6697L152.852 69.576C152.852 69.576 145.379 75.9672 146.343 75.7736C147.307 75.58 154.541 73.2545 154.298 73.8375C154.057 74.4183 148.03 83.5222 148.03 83.5222C148.03 83.5222 154.78 81.1967 154.298 81.7798C153.816 82.3606 139.349 116.646 115.722 120.327C92.0957 124.008 61.4753 124.197 48.6981 117.999Z" fill="#EDE6D9"/>
<path d="M58.5836 12.4328C47.2523 6.23522 28.9299 9.72005 24.5896 18.6303C20.2492 27.5405 30.8577 43.0355 31.3396 49.6226C31.47 51.3855 31.4077 53.8841 31.2687 56.8268L36.4029 55.2393L41.2251 58.5328L46.7703 51.365L55.2072 56.4009L58.5836 50.5906L65.3336 54.4649L69.915 48.8481L77.6289 52.7225C77.6289 52.7225 79.0747 47.1057 79.5567 47.6865C79.8288 48.0145 82.6184 48.4017 85.0083 48.6796C81.2491 38.421 77.8982 22.9966 58.5836 12.4328Z" fill="#D6CFC1"/>
<path d="M37.2711 34.1849C37.2711 34.1849 38.3342 31.8024 35.4397 29.0897C32.6473 26.4704 28.9023 27.9555 28.9023 27.9555C28.9023 27.9555 22.3026 38.0318 23.6463 39.0704C24.9929 40.1136 37.2711 34.1849 37.2711 34.1849Z" fill="#E8B618"/>
<path d="M49.9036 26.1519C51.0778 26.1519 52.0298 25.387 52.0298 24.4436C52.0298 23.5002 51.0778 22.7354 49.9036 22.7354C48.7293 22.7354 47.7773 23.5002 47.7773 24.4436C47.7773 25.387 48.7293 26.1519 49.9036 26.1519Z" fill="#564336"/>
<path d="M27.1985 25.2185C27.1985 26.1615 26.246 26.9268 25.0724 26.9268C23.8988 26.9268 22.9463 26.1615 22.9463 25.2185C22.9463 24.2756 23.8988 23.5103 25.0724 23.5103C26.2488 23.508 27.1985 24.2733 27.1985 25.2185Z" fill="#564336"/>
<path d="M27.9678 15.9201C27.9678 15.9201 23.6275 8.75225 26.281 5.6546C28.9317 2.55468 32.7901 4.49299 32.7901 4.49299C32.7901 4.49299 35.6846 0.425037 40.745 0.0378309C45.8082 -0.349375 47.2541 2.36336 47.2541 2.36336C47.2541 2.36336 48.218 0.620925 52.3173 1.78254C56.4167 2.94416 56.6577 6.04408 56.6577 6.04408L57.3806 11.8544C57.3806 11.8544 50.3896 9.72482 41.4679 10.8864C32.5463 12.0458 27.9678 15.9201 27.9678 15.9201Z" fill="#EF5C3F"/>
<path d="M97.9971 64.815C87.1306 69.1517 80.7945 80.9751 96.7497 91.9763C117.346 106.178 144.995 104.153 144.995 104.153L143.416 100.511L157.917 100.928L151.019 92.6778L164.001 91.5116L156.573 86.0543L161.855 84.0386C161.855 84.0386 153.415 72.4703 139.232 66.4845C125.587 60.7311 113.527 58.6175 97.9971 64.815Z" fill="#D6CFC1"/>
<path d="M63.8849 134.856C71.2331 134.721 70.4592 122.939 70.635 118.192L54.9717 116.062C54.9689 120.301 56.0915 134.999 63.8849 134.856Z" fill="#EDE6D9"/>
<path d="M70.6933 117.241C70.665 117.512 70.6451 117.833 70.6338 118.193H70.6395C70.7132 117.746 71.1101 117.553 70.6933 117.241Z" fill="#EDE6D9"/>
<path d="M109.509 117.821C109.48 118.092 109.461 118.413 109.449 118.773H109.455C109.529 118.326 109.926 118.133 109.509 117.821Z" fill="#EDE6D9"/>
<path d="M102.699 135.436C110.047 135.301 109.273 123.519 109.449 118.772L93.7861 116.643C93.7833 120.881 94.9059 135.579 102.699 135.436Z" fill="#EDE6D9"/>
<path d="M33.5183 5.84148C32.4722 3.32689 27.7037 4.58648 27.6244 6.88012C26.3514 8.61801 26.5839 11.046 29.1382 11.6314C29.4614 9.94135 29.5748 9.5883 31.1624 8.60661C32.3815 7.85269 34.227 7.55203 33.5183 5.84148Z" fill="#ED7454"/>
<path d="M40.717 1.81202C38.8573 1.58425 35.7446 2.17187 35.2541 3.75942C34.3441 6.70218 39.3534 5.68863 40.992 4.92106C46.5626 2.31311 43.8326 1.41798 40.717 1.81202Z" fill="#ED7454"/>
<path d="M33.9932 68.2173L39.476 76.7403L43.394 67.8301L40.4569 68.2173L39.0848 71.7044L36.7346 68.0237L33.9932 68.2173Z" fill="#D6CFC1"/>
<path d="M46.2891 68.2178L52.5571 76.7408L58.5843 66.2817L53.521 67.637L51.3523 72.0921L49.4217 68.4114L46.2891 68.2178Z" fill="#D6CFC1"/>
<path d="M63.165 66.668L68.4692 74.8039L71.8428 64.9233L68.4692 65.5064L67.2644 69.768L65.3337 65.7L63.165 66.668Z" fill="#D6CFC1"/>
<path d="M40.7441 79.4534L44.5997 87.3933L49.9039 79.4534H46.2893L44.8435 81.9702L44.1177 79.2598L40.7441 79.4534Z" fill="#D6CFC1"/>
<path d="M55.9336 78.6788L60.9941 87.5867L65.8165 77.3213L61.9609 78.0957L60.7532 82.7444L59.5483 78.0957L55.9336 78.6788Z" fill="#D6CFC1"/>
<path d="M48.9395 91.2681L54.2437 99.5975L57.1383 90.4937H54.0028L52.7979 93.5936L51.593 90.4937L48.9395 91.2681Z" fill="#D6CFC1"/>
<path d="M94.2028 83.3994C95.5012 84.1396 96.8336 84.8389 98.2199 85.4653C99.4927 86.0392 100.879 86.5995 102.333 86.7886C102.841 86.8546 103.056 86.2328 102.546 86.1668C101.146 85.9846 99.8528 85.4516 98.6225 84.9072C97.2277 84.2922 95.898 83.5816 94.6053 82.8414C94.1857 82.5999 93.7832 83.1602 94.2028 83.3994Z" fill="#F2EAD7"/>
<path d="M94.2972 76.7162C96.9649 77.2788 99.3434 78.4768 102.011 79.0417C102.513 79.1465 102.726 78.5247 102.224 78.4199C99.5561 77.8573 97.1775 76.6592 94.5098 76.0944C94.008 75.9896 93.7954 76.6114 94.2972 76.7162Z" fill="#F2EAD7"/>
<path d="M99.5491 70.2726C102.276 70.5642 104.913 71.2998 107.478 72.0697C107.966 72.2155 108.173 71.5914 107.691 71.4479C105.046 70.6553 102.356 69.9287 99.5463 69.6281C99.036 69.5711 99.0416 70.218 99.5491 70.2726Z" fill="#F2EAD7"/>
<path d="M111.981 65.8702C116.163 66.4259 120.628 66.7926 124.424 68.4212C124.88 68.617 125.285 68.059 124.829 67.8632C120.962 66.205 116.455 65.8155 112.196 65.2484C111.686 65.1801 111.471 65.8019 111.981 65.8702Z" fill="#F2EAD7"/>
<path d="M116.161 72.3283C118.803 72.8567 121.507 73.3533 123.781 74.6197C124.209 74.8589 124.609 74.2985 124.186 74.0617C121.859 72.7634 119.081 72.2463 116.376 71.7042C115.871 71.604 115.656 72.2281 116.161 72.3283Z" fill="#F2EAD7"/>
<path d="M111.014 79.3002C113.588 79.8377 115.933 80.8672 118.407 81.6257C118.892 81.7737 119.099 81.1496 118.62 81.0038C116.145 80.2454 113.801 79.2182 111.227 78.6784C110.728 78.5736 110.515 79.1954 111.014 79.3002Z" fill="#F2EAD7"/>
<path d="M110.158 86.2847C110.676 86.2847 110.676 85.6401 110.158 85.6401C109.639 85.6401 109.639 86.2847 110.158 86.2847Z" fill="#F2EAD7"/>
<path d="M110.05 86.2744C112.27 86.8074 114.257 87.8073 116.48 88.3403C116.979 88.4587 117.188 87.8369 116.692 87.7185C114.473 87.1855 112.485 86.1856 110.263 85.6526C109.766 85.5319 109.554 86.156 110.05 86.2744Z" fill="#F2EAD7"/>
<path d="M109.193 95.3232C113.17 95.6375 116.433 97.8468 120.337 98.4117C120.845 98.4846 121.06 97.8628 120.55 97.7899C116.567 97.2137 113.261 94.9998 109.19 94.6786C108.677 94.6376 108.683 95.2822 109.193 95.3232Z" fill="#F2EAD7"/>
<path d="M126.874 97.3912C127.393 97.3912 127.393 96.7466 126.874 96.7466C126.356 96.7466 126.356 97.3912 126.874 97.3912Z" fill="#F2EAD7"/>
<path d="M126.876 97.3908C129.439 97.6482 132.004 97.8965 134.59 97.9079C135.109 97.9101 135.109 97.2632 134.59 97.2632C132.004 97.2541 129.439 97.0036 126.876 96.7462C126.36 96.6938 126.369 97.3407 126.876 97.3908Z" fill="#F2EAD7"/>
<path d="M124.625 91.9678C125.144 91.9678 125.144 91.3232 124.625 91.3232C124.107 91.321 124.107 91.9678 124.625 91.9678Z" fill="#F2EAD7"/>
<path d="M124.625 91.9671C126.173 91.835 127.729 92.1379 129.221 92.4408C130.873 92.7757 132.498 93.2016 134.162 93.5068C134.667 93.6001 134.882 92.9761 134.375 92.885C132.71 92.5798 131.083 92.163 129.433 91.8191C127.885 91.4979 126.233 91.1859 124.625 91.3225C124.115 91.3635 124.109 92.0104 124.625 91.9671Z" fill="#F2EAD7"/>
<path d="M127.515 83.9621C130.486 84.2491 133.329 85.1806 135.991 86.242C136.453 86.4265 136.861 85.8685 136.396 85.684C133.595 84.568 130.636 83.6182 127.515 83.3153C127.001 83.2652 127.007 83.912 127.515 83.9621Z" fill="#F2EAD7"/>
<path d="M129.984 74.65C132.643 75.47 135.067 76.6908 137.604 77.7157C138.066 77.9025 138.471 77.3444 138.009 77.1577C135.41 76.1054 132.923 74.8663 130.199 74.0259C129.711 73.8778 129.504 74.5042 129.984 74.65Z" fill="#F2EAD7"/>
<path d="M132.78 67.9044C135.757 69.23 138.805 70.4531 141.781 71.7787C142.235 71.9814 142.64 71.4234 142.187 71.2207C139.21 69.8951 136.162 68.672 133.186 67.3464C132.732 67.1437 132.327 67.7017 132.78 67.9044Z" fill="#F2EAD7"/>
<path d="M145.521 77.2456C146.04 77.2456 146.04 76.6011 145.521 76.6011C145.002 76.6011 145.002 77.2456 145.521 77.2456Z" fill="#F2EAD7"/>
<path d="M145.315 77.2015C147.501 78.0807 149.701 78.9598 151.745 80.0417C152.179 80.2718 152.581 79.7115 152.15 79.4837C150.106 78.4018 147.909 77.5204 145.721 76.6435C145.259 76.459 144.85 77.0147 145.315 77.2015Z" fill="#F2EAD7"/>
<path d="M144.03 83.1411C146.272 84.4188 148.648 85.5075 151.103 86.4983C151.565 86.6851 151.973 86.1271 151.508 85.9403C149.053 84.9495 146.677 83.8608 144.435 82.5831C144.013 82.3416 143.613 82.9019 144.03 83.1411Z" fill="#F2EAD7"/>
<path d="M141.782 92.6991C143.988 93.7127 146.199 94.7262 148.532 95.5394C149.003 95.7034 149.411 95.1476 148.938 94.9813C146.605 94.1682 144.393 93.1524 142.188 92.1411C141.737 91.9338 141.332 92.4919 141.782 92.6991Z" fill="#F2EAD7"/>
<path d="M8.77356 85.4671C11.5433 84.3624 14.4264 83.4491 17.3577 82.6587C17.8454 82.5266 17.6384 81.9025 17.1451 82.0369C14.1514 82.8432 11.2003 83.7816 8.36815 84.9114C7.90322 85.0936 8.31147 85.6516 8.77356 85.4671Z" fill="#F2EAD7"/>
<path d="M12.5365 88.5997C14.7591 88.0758 16.8116 87.2649 18.7394 86.2423C19.1703 86.0145 18.7678 85.4542 18.334 85.6842C16.4601 86.6773 14.4784 87.4677 12.321 87.9756C11.8277 88.094 12.0375 88.7158 12.5365 88.5997Z" fill="#F2EAD7"/>
<path d="M14.1435 95.8303C15.9239 95.2563 17.6192 94.6345 19.1417 93.6801C19.5499 93.425 18.9772 92.9695 18.5747 93.2246C17.1685 94.106 15.5752 94.6777 13.9309 95.2084C13.4546 95.3588 13.6616 95.9852 14.1435 95.8303Z" fill="#F2EAD7"/>
<path d="M23.467 96.8619C25.2615 96.5498 26.9172 95.8642 28.6096 95.313C29.0831 95.1581 28.8761 94.534 28.397 94.6912C26.7045 95.2424 25.0489 95.928 23.2544 96.24C22.7469 96.3289 22.9596 96.9507 23.467 96.8619Z" fill="#F2EAD7"/>
<path d="M24.4304 90.9215C26.9989 90.6436 29.3576 89.8419 31.6001 88.8238C32.0509 88.6188 31.6455 88.0607 31.1947 88.2657C29.0089 89.2611 26.7239 90.0286 24.2178 90.2997C23.7047 90.3544 23.9229 90.9762 24.4304 90.9215Z" fill="#F2EAD7"/>
<path d="M23.4656 83.4335C25.759 83.1579 27.9901 82.6522 30.2156 82.142C30.7117 82.0281 30.5019 81.404 30.003 81.5202C27.7775 82.0304 25.5464 82.5361 23.2529 82.8117C22.7398 82.8709 22.9581 83.4927 23.4656 83.4335Z" fill="#F2EAD7"/>
<path d="M20.4276 78.7011C21.2384 78.093 22.4348 77.7741 23.4638 77.4917C23.9514 77.3596 23.7417 76.7355 23.2512 76.8699C22.0832 77.1888 20.7763 77.5555 19.8607 78.2433C19.4808 78.5303 20.0506 78.9858 20.4276 78.7011Z" fill="#F2EAD7"/>
<path d="M14.0376 78.7959C14.5565 78.7959 14.5565 78.1514 14.0376 78.1514C13.5187 78.1514 13.5187 78.7959 14.0376 78.7959Z" fill="#F2EAD7"/>
<path d="M14.3225 78.4421C14.9575 77.9205 15.5103 77.2372 16.3948 76.9753C16.8768 76.8318 16.6698 76.2077 16.1822 76.3535C15.1333 76.6632 14.5096 77.367 13.7555 77.9866C13.3898 78.2827 13.9596 78.7383 14.3225 78.4421Z" fill="#F2EAD7"/>
<path d="M26.1356 74.8773C27.5616 74.3329 29.1889 74.1598 30.7538 74.1461C31.2726 74.1415 31.2726 73.4969 30.7538 73.5015C29.0415 73.5152 27.2866 73.727 25.7302 74.3215C25.2596 74.4992 25.6679 75.0549 26.1356 74.8773Z" fill="#F2EAD7"/>
</svg>
