<svg width="164" height="167" viewBox="0 0 164 167" fill="none" xmlns="http://www.w3.org/2000/svg">
<path d="M130.278 65.6973L138.829 66.4417L132.755 74.2468L140.936 73.752L136.474 82.1767L148 82.5489L140.811 93.3271L127.178 86.7612C127.053 86.389 120.114 73.2572 120.114 73.2572L130.278 65.6973Z" fill="#AF9880"/>
<path d="M72.1775 53.5356C72.1775 53.5356 69.6191 16.8002 59.1622 14.1358C40.1979 9.30384 31.6444 24.1718 33.1317 65.8027C34.2707 97.6996 36.4786 125.647 91.5142 124.902C124.981 124.449 145.062 90.3345 145.062 90.3345C143.948 90.3345 136.881 88.1036 136.881 88.1036C136.881 88.1036 143.575 79.9263 142.46 79.9263C141.345 79.9263 133.164 79.5541 133.164 79.5541C133.164 79.5541 140.231 70.6324 139.113 70.6324C137.999 70.6324 128.7 72.8634 128.7 72.8634L136.881 62.8273L72.1775 53.5356Z" fill="#4C4C3B"/>
<path d="M59.1622 13.7638C66.9818 15.7561 70.3857 36.8025 71.6035 47.2918L68.8305 49.4483L63.9963 44.6164L61.0218 51.3071L53.2131 45.3608L49.4938 51.6793L42.4276 45.7329L37.2211 54.2824L35.7338 47.2195L33.0835 49.8687C34.1721 20.1108 42.7847 9.59303 59.1622 13.7638Z" fill="#AF9880"/>
<path d="M63.8477 155.354L52.9067 161.905L52.3526 160.661L60.9301 155.545L50.8302 156.236L50.9704 154.991L60.6541 154.439L54.2888 152.642L55.3972 151.812L63.6965 154.301L63.8477 155.354Z" fill="#EF5C3F"/>
<path d="M98.6094 155.166L90.5729 164.206L89.7427 163.238L95.8298 156.324L86.5601 157.984L86.4221 156.462L95.5516 155.081L87.8042 153.143L88.7745 152.037L97.7661 154.527L98.6094 155.166Z" fill="#EF5C3F"/>
<path d="M99.9004 132.488L98.6102 155.166L97.3179 155.349L96.5819 132.304L99.9004 132.488Z" fill="#EF5C3F"/>
<path d="M65.1387 132.676L63.8485 155.354L62.5562 155.538L61.8202 132.49L65.1387 132.676Z" fill="#EF5C3F"/>
<path d="M45.7425 29.7744C45.7425 29.7744 46.2441 30.9873 46.3295 32.7519C46.4128 34.5166 45.6592 35.8389 45.6592 35.8389C45.6592 35.8389 40.3826 33.7437 40.3826 32.7519C40.3826 31.758 45.7425 29.7744 45.7425 29.7744Z" fill="#E8B618"/>
<path d="M56.6543 13.17C56.6543 13.17 53.1847 13.17 49.4654 15.6484C45.7461 18.1268 43.0213 19.6133 43.0213 19.6133C43.0213 19.6133 36.3274 13.1722 38.0644 9.20728C39.7992 5.24234 43.0213 7.22589 43.0213 7.22589C43.0213 7.22589 42.7737 3.26096 46.9881 3.01356C51.2024 2.76616 51.9449 5.98672 51.9449 5.98672C51.9449 5.98672 51.9449 2.26918 55.6642 3.75576C58.4614 4.87452 56.6543 13.17 56.6543 13.17Z" fill="#EF5C3F"/>
<path d="M53.6801 4.87026C53.8181 4.81333 53.9473 4.78048 54.0678 4.76516L54.0503 4.74546C56.7422 3.50847 56.3326 9.10667 55.5309 10.2758C55.8091 8.15867 54.5869 7.73393 53.4304 6.47943C52.8587 5.85765 52.655 5.29061 53.6801 4.87026Z" fill="#ED7454"/>
<path d="M48.2189 4.619C48.4861 4.74818 48.7227 4.90144 48.9264 5.06346C49.7193 5.37216 50.3764 5.90198 50.429 6.63105C50.5954 8.96056 46.2125 8.18114 45.2794 7.07112C43.5512 5.01528 46.5892 3.82426 48.2189 4.619Z" fill="#ED7454"/>
<path d="M55.8488 27.7885C55.8247 26.6282 55.126 25.6802 53.9278 25.5576C52.8063 25.4437 51.8491 26.1596 51.6235 27.2499C51.5425 27.6418 50.9445 27.4754 51.0256 27.0857C51.3103 25.7086 52.5413 24.8526 53.9278 24.938C55.4698 25.0321 56.438 26.3107 56.4687 27.7863C56.4774 28.1892 55.8576 28.187 55.8488 27.7885Z" fill="#564336"/>
<path d="M29.9965 79.9022C36.1835 76.1402 46.552 83.5082 50.72 87.5342C54.8881 91.5602 57.3201 100.116 51.1987 106.275C45.0772 112.434 37.2261 113.224 32.8768 107.735C27.0143 100.341 22.5583 84.4277 29.9965 79.9022Z" fill="#FFE8AE"/>
<path d="M32.8751 107.74C28.3259 101.999 24.6275 91.142 26.6657 84.4464C27.0332 90.6146 29.9811 97.8541 33.409 102.181C37.7547 107.667 45.6068 106.884 51.7309 100.722C53.2285 99.2179 54.2122 97.5647 54.7881 95.8757C55.2194 99.3548 54.3268 103.131 51.197 106.28C45.0756 112.439 37.2244 113.228 32.8751 107.74Z" fill="#EDD7A4"/>
<path opacity="0.6" d="M35.3292 81.6891C36.629 81.7918 37.8379 82.3906 38.9475 83.0839C39.9048 83.6796 40.8115 84.3501 41.6603 85.09C42.5056 85.8272 43.3173 86.669 43.6804 87.7322C44.0399 88.7926 43.8254 90.1211 42.9206 90.7839C42.693 90.9514 42.4168 91.0711 42.1372 91.0752C41.7835 91.0802 41.4599 90.9101 41.157 90.7275C39.4786 89.7024 38.0869 88.1085 36.1822 87.6243C34.9395 87.3106 33.4617 87.4521 32.5797 86.5236C30.4743 84.3252 32.7918 81.491 35.3292 81.6891Z" fill="white"/>
<path d="M42.4621 27.4157C42.438 26.2554 41.7393 25.3074 40.5411 25.1848C39.4196 25.0709 38.4624 25.7868 38.2368 26.8771C38.1558 27.269 37.5578 27.1027 37.6388 26.7129C37.9236 25.3337 39.1546 24.4798 40.5411 24.5652C42.0832 24.6593 43.0513 25.9379 43.082 27.4135C43.0886 27.8164 42.4709 27.8142 42.4621 27.4157Z" fill="#564336"/>
<path d="M52.5644 94.0677C52.5644 94.0677 59.1334 92.8285 69.1719 84.776C76.2096 79.1318 79.8588 70.6853 85.5319 68.9184C102.637 63.5917 110.89 85.4263 99.5372 99.0222C85.1595 116.242 60.371 112.031 60.371 112.031C60.371 112.031 64.9576 108.563 64.4604 108.563C63.9653 108.563 57.1467 106.705 57.1467 106.705C57.1467 106.705 62.2284 103.856 61.7334 103.856C61.2383 103.856 52.5622 101.875 52.5622 101.875L59.256 97.7874C58.5135 97.6604 52.5644 94.0677 52.5644 94.0677Z" fill="#AF9880"/>
<path d="M25.2977 92.5801C28.1628 93.7054 30.9993 95.3781 34.1775 95.6715C33.1962 96.2933 31.5732 96.672 30.8876 97.5368C32.3968 98.4104 34.1096 98.9818 35.54 99.897C34.6638 99.9276 33.8358 100.401 32.9991 100.654C33.0911 101.648 35.9539 103.183 36.7052 103.853C37.4916 104.556 38.2254 105.335 39.0117 105.994C34.9179 107.678 31.6827 106.927 28.5264 103.496C26.3645 101.145 23.4381 96.0065 25.2035 92.7158C25.3306 92.764 25.3021 92.8603 25.4204 92.9545L25.2977 92.5801Z" fill="#AF9880"/>
<path d="M91.5155 124.869C91.5155 123.381 91.5155 121.89 91.5155 120.401C91.5155 120.184 91.5155 119.365 91.5155 118.831L108.25 116.972C105.385 122.409 105.963 140.933 97.8194 142.619C93.3839 143.538 91.8507 136.41 91.509 132.874C91.2549 130.266 91.5155 127.49 91.5155 124.869Z" fill="#4C4C3B"/>
<path d="M58.4197 123.755C58.4197 122.266 58.4197 120.775 58.4197 119.286C58.4197 119.07 58.4197 118.251 58.4197 117.717L75.1543 115.858C72.2893 121.294 72.8675 139.816 64.7237 141.504C60.2881 142.422 58.7548 135.295 58.4131 131.759C58.159 129.15 58.4197 126.373 58.4197 123.755Z" fill="#4C4C3B"/>
<path d="M101.399 88.1063C100.166 89.9147 98.5143 91.3707 96.889 92.8134C96.5911 93.0783 96.1508 92.6405 96.4509 92.3756C98.0346 90.9678 99.6642 89.5557 100.865 87.7933C101.086 87.467 101.625 87.7757 101.399 88.1063Z" fill="#4C4C3B"/>
<path d="M99.7255 80.4892C98.6719 82.3546 97.27 84.0513 95.5878 85.3825C95.279 85.6277 94.8365 85.192 95.1497 84.9446C96.7947 83.6441 98.1615 81.9999 99.191 80.1761C99.386 79.828 99.9204 80.1389 99.7255 80.4892Z" fill="#4C4C3B"/>
<path d="M97.0124 77.2558C95.8011 78.1205 94.5548 79.0028 93.7772 80.3033C93.5735 80.6449 93.0368 80.334 93.2427 79.9902C94.0751 78.5956 95.4003 77.6476 96.6992 76.7194C97.0256 76.4873 97.3344 77.0237 97.0124 77.2558Z" fill="#4C4C3B"/>
<path d="M90.1318 72.423C87.9765 73.6184 85.7401 75.4311 84.6668 77.7015C84.496 78.0628 83.9615 77.7475 84.1324 77.3884C85.2473 75.0305 87.58 73.1323 89.8208 71.8888C90.1691 71.6939 90.4823 72.2281 90.1318 72.423Z" fill="#4C4C3B"/>
<path d="M80.3443 78.1358C78.9994 79.4801 77.6414 80.8287 76.4892 82.346C76.2505 82.659 75.7117 82.3525 75.9548 82.0329C77.142 80.4719 78.5219 79.0794 79.9062 77.6958C80.1888 77.4155 80.6268 77.8534 80.3443 78.1358Z" fill="#4C4C3B"/>
<path d="M87.034 81.4814C85.7417 82.587 84.4471 83.6926 83.0672 84.6888C82.743 84.9231 82.4342 84.3845 82.754 84.1546C84.0923 83.1913 85.343 82.1163 86.5959 81.0435C86.8982 80.783 87.3384 81.2209 87.034 81.4814Z" fill="#4C4C3B"/>
<path d="M88.8612 86.9585C88.4625 86.9585 88.4625 86.3389 88.8612 86.3389C89.2598 86.3389 89.2598 86.9585 88.8612 86.9585Z" fill="#4C4C3B"/>
<path d="M89.1297 86.8054C88.1112 88.1803 86.6765 89.0977 85.3009 90.0763C84.9745 90.3084 84.6657 89.7698 84.9877 89.5421C86.2691 88.6313 87.6447 87.7753 88.5953 86.4945C88.8297 86.1771 89.3685 86.4836 89.1297 86.8054Z" fill="#4C4C3B"/>
<path d="M91.2499 94.1644C89.8832 94.9504 88.5404 95.7955 87.408 96.9033C87.1233 97.1835 86.683 96.7457 86.9699 96.4654C88.1396 95.3226 89.5239 94.4403 90.9367 93.6302C91.2828 93.431 91.596 93.9652 91.2499 94.1644Z" fill="#4C4C3B"/>
<path d="M93.4803 98.6237C91.9864 99.5366 90.3261 100.126 88.8322 101.039C88.4905 101.247 88.1795 100.712 88.519 100.504C90.0129 99.5914 91.6732 99.0024 93.167 98.0895C93.5088 97.8793 93.8198 98.4157 93.4803 98.6237Z" fill="#4C4C3B"/>
<path d="M96.1447 72.3747C95.1722 73.1432 94.1427 73.835 93.1702 74.6057C92.8613 74.8509 92.4189 74.4152 92.7321 74.1678C93.7046 73.3993 94.7341 72.7075 95.7066 71.939C96.0155 71.6916 96.4579 72.1273 96.1447 72.3747Z" fill="#4C4C3B"/>
<path d="M80.4662 101.41C79.1389 101.979 77.8203 102.56 76.563 103.269C76.2147 103.466 75.9015 102.93 76.2498 102.735C77.5093 102.025 78.8278 101.445 80.153 100.876C80.5166 100.721 80.832 101.255 80.4662 101.41Z" fill="#4C4C3B"/>
<path d="M89.2036 105.128C87.8237 105.91 86.3933 106.615 84.8535 107.018C84.4658 107.118 84.3015 106.521 84.6892 106.42C86.1787 106.03 87.5564 105.349 88.8904 104.594C89.2387 104.395 89.5519 104.931 89.2036 105.128Z" fill="#4C4C3B"/>
<path d="M77.3358 109.257C76.0851 109.277 74.8694 109.607 73.6187 109.629C73.2179 109.636 73.2201 109.016 73.6187 109.01C74.8694 108.99 76.0851 108.659 77.3358 108.638C77.7344 108.631 77.7344 109.251 77.3358 109.257Z" fill="#4C4C3B"/>
<path d="M68.8651 106.273C67.8093 106.448 66.7536 106.623 65.7044 106.831C65.3145 106.908 65.148 106.31 65.5401 106.233C66.5893 106.025 67.645 105.852 68.7008 105.675C69.0907 105.611 69.2593 106.207 68.8651 106.273Z" fill="#4C4C3B"/>
<path d="M74.4422 99.0261C73.3558 99.3983 72.3263 99.9106 71.4195 100.62C71.1084 100.863 70.666 100.427 70.9814 100.182C71.978 99.4049 73.0842 98.84 74.2779 98.4306C74.6568 98.2992 74.8189 98.8969 74.4422 99.0261Z" fill="#4C4C3B"/>
<path d="M82.3249 93.4214C81.578 93.7936 80.8288 94.1658 80.0206 94.3826C79.6351 94.4855 79.4708 93.8878 79.8563 93.7849C80.6142 93.5813 81.3129 93.2353 82.0138 92.8872C82.3687 92.7077 82.6819 93.2419 82.3249 93.4214Z" fill="#4C4C3B"/>
<path d="M77.119 88.4039C75.2879 89.6715 73.3078 90.6874 71.3561 91.7492C71.0057 91.9397 70.6924 91.4055 71.0429 91.215C72.9967 90.1532 74.9746 89.1395 76.8058 87.8696C77.1365 87.6398 77.4454 88.1783 77.119 88.4039Z" fill="#4C4C3B"/>
<path d="M69.933 86.8683C68.7326 88.0418 67.3067 88.946 66.0297 90.0275C65.7274 90.2837 65.285 89.848 65.5916 89.5897C66.8708 88.5081 68.2967 87.6039 69.4949 86.4304C69.7796 86.1502 70.2177 86.588 69.933 86.8683Z" fill="#4C4C3B"/>
<path d="M64.3205 98.1095C63.9219 98.1095 63.9219 97.49 64.3205 97.49C64.7213 97.49 64.7213 98.1095 64.3205 98.1095Z" fill="#4C4C3B"/>
<path d="M64.1048 98.2514C62.7621 99.1972 61.2945 99.935 59.8292 100.666C59.4722 100.844 59.159 100.309 59.516 100.132C60.9813 99.3986 62.4489 98.6608 63.7916 97.7172C64.1201 97.4873 64.429 98.0237 64.1048 98.2514Z" fill="#4C4C3B"/>
<path d="M29.3721 96.4364C28.7478 96.4232 28.1389 96.259 27.5125 96.2503C27.1138 96.2437 27.1116 95.6241 27.5125 95.6307C28.1389 95.6394 28.7478 95.8036 29.3721 95.8168C29.7707 95.8255 29.7729 96.4451 29.3721 96.4364Z" fill="#4C4C3B"/>
<path d="M30.7018 101.597C30.1038 101.219 29.4117 101.057 28.7305 100.886C28.3428 100.789 28.5071 100.192 28.8948 100.288C29.6263 100.47 30.3711 100.656 31.0128 101.063C31.3502 101.275 31.0391 101.812 30.7018 101.597Z" fill="#4C4C3B"/>
<path d="M33.9361 105.531C33.0446 105.351 32.1794 105.119 31.3339 104.788C30.9659 104.644 31.1258 104.044 31.4982 104.191C32.3459 104.523 33.2111 104.753 34.1004 104.933C34.4925 105.012 34.326 105.609 33.9361 105.531Z" fill="#4C4C3B"/>
<path d="M27.5119 98.1095C27.1133 98.1095 27.1133 97.49 27.5119 97.49C27.9127 97.49 27.9127 98.1095 27.5119 98.1095Z" fill="#4C4C3B"/>
<path d="M27.3257 97.9234C26.9994 97.9059 26.7672 97.6804 26.5481 97.4614C26.2656 97.179 26.7036 96.7412 26.9862 97.0236C27.0563 97.0937 27.1286 97.1637 27.203 97.2294C27.2315 97.2557 27.26 97.271 27.295 97.2929C27.3301 97.3104 27.3367 97.3148 27.3147 97.3016C27.352 97.3104 27.3564 97.3126 27.3257 97.306C27.4944 97.3148 27.6367 97.4395 27.6367 97.6169C27.6367 97.7745 27.4944 97.9321 27.3257 97.9234Z" fill="#4C4C3B"/>
<path d="M77.1792 62.2039C75.4641 61.3216 74.0228 59.9948 72.345 59.0447C71.9967 58.8476 72.3099 58.3134 72.6582 58.5104C74.336 59.4606 75.7773 60.7852 77.4924 61.6697C77.8472 61.8514 77.534 62.3856 77.1792 62.2039Z" fill="#AF9880"/>
<path d="M70.6093 67.5438C69.8646 66.7994 69.122 66.0572 68.3773 65.315C68.0947 65.0326 68.5328 64.5947 68.8154 64.8771C69.5601 65.6215 70.3027 66.3637 71.0474 67.1059C71.33 67.3883 70.8919 67.8262 70.6093 67.5438Z" fill="#AF9880"/>
<path d="M64.4738 60.6688C63.6283 59.5916 62.9493 58.4006 62.1937 57.2622C61.9724 56.9272 62.5091 56.6185 62.7281 56.9491C63.4509 58.0438 64.0993 59.1976 64.9097 60.2309C65.155 60.5396 64.7213 60.9819 64.4738 60.6688Z" fill="#AF9880"/>
<path d="M67.8534 57.2268C67.4547 57.2268 67.4547 56.6072 67.8534 56.6072C68.252 56.6094 68.252 57.2268 67.8534 57.2268Z" fill="#AF9880"/>
<path d="M67.5871 56.8898C67.0286 55.9615 66.4722 55.031 65.9137 54.1027C65.7078 53.759 66.2444 53.4481 66.4482 53.7896C67.0067 54.7179 67.5631 55.6484 68.1216 56.5767C68.3275 56.9204 67.793 57.2313 67.5871 56.8898Z" fill="#AF9880"/>
<path d="M54.4678 71.7226C54.0691 71.7226 54.0691 71.103 54.4678 71.103C54.8664 71.103 54.8686 71.7226 54.4678 71.7226Z" fill="#AF9880"/>
<path d="M54.2015 71.57C53.4415 70.1995 53.0362 68.6823 52.4974 67.222C52.3594 66.8476 52.9574 66.6856 53.0954 67.0578C53.6167 68.4677 54.0044 69.9346 54.7382 71.257C54.9309 71.6051 54.3943 71.9182 54.2015 71.57Z" fill="#AF9880"/>
<path d="M59.2198 71.3827C58.8058 70.5332 58.5167 69.6312 58.1049 68.7817C57.9319 68.4249 58.4663 68.1096 58.6394 68.4687C59.0533 69.3181 59.3425 70.2202 59.7543 71.0696C59.9295 71.4265 59.395 71.7418 59.2198 71.3827Z" fill="#AF9880"/>
<path d="M53.9738 59.3331C53.9628 58.2626 53.7394 57.2949 53.2729 56.3316C53.0998 55.9747 53.6343 55.6594 53.8073 56.0185C54.3221 57.0803 54.5806 58.1553 54.5937 59.3331C54.5981 59.7338 53.9782 59.7338 53.9738 59.3331Z" fill="#AF9880"/>
<path d="M45.9892 75.2105C45.7877 74.4092 45.5949 73.6057 45.4307 72.7957C45.3518 72.4059 45.9498 72.2396 46.0287 72.6315C46.1929 73.4415 46.3857 74.245 46.5872 75.0463C46.6836 75.4338 46.0856 75.598 45.9892 75.2105Z" fill="#AF9880"/>
<path d="M35.7527 68.6253C35.5774 67.1431 35.5665 65.6565 35.5665 64.1655C35.5665 63.7671 36.1864 63.7671 36.1864 64.1655C36.1864 65.6543 36.1973 67.1431 36.3726 68.6253C36.4186 69.0215 35.7987 69.0172 35.7527 68.6253Z" fill="#AF9880"/>
<path d="M44.3156 61.4606C44.1338 60.2893 44.1251 59.1005 43.9433 57.9292C43.8819 57.5395 44.4799 57.3709 44.5412 57.765C44.723 58.9363 44.7318 60.1251 44.9136 61.2964C44.9749 61.6861 44.3769 61.8525 44.3156 61.4606Z" fill="#AF9880"/>
<path d="M34.835 58.8796C35.1855 57.6623 34.651 56.3487 34.4627 55.1423C34.4013 54.7526 34.9993 54.584 35.0606 54.9781C35.2665 56.3049 35.8185 57.7039 35.433 59.046C35.3213 59.4269 34.7233 59.2649 34.835 58.8796Z" fill="#AF9880"/>
<path d="M122.139 65.7769C120.463 65.7769 118.788 65.7682 117.118 65.5908C116.726 65.5492 116.722 64.9296 117.118 64.9712C118.788 65.1486 120.461 65.1573 122.139 65.1573C122.54 65.1573 122.54 65.7769 122.139 65.7769Z" fill="#AF9880"/>
<path d="M120.651 74.8793C119.091 74.8947 117.591 75.2362 116.086 75.6106C115.698 75.7069 115.534 75.1092 115.922 75.0129C117.481 74.6232 119.036 74.2751 120.651 74.2576C121.051 74.2576 121.051 74.8772 120.651 74.8793Z" fill="#AF9880"/>
<path d="M128.171 80.2584C127.163 80.5978 126.188 80.9875 125.271 81.5283C124.925 81.7319 124.614 81.1955 124.957 80.9941C125.921 80.427 126.948 80.0176 128.006 79.6629C128.385 79.5338 128.547 80.1315 128.171 80.2584Z" fill="#AF9880"/>
<path d="M125.937 86.5775C124.733 87.0854 123.471 87.4598 122.293 88.0334C121.936 88.2064 121.62 87.6744 121.979 87.4992C123.206 86.9037 124.516 86.5096 125.771 85.982C126.141 85.8243 126.301 86.4242 125.937 86.5775Z" fill="#AF9880"/>
<path d="M133.822 94.5361C132.567 95.4162 131.173 96.073 129.918 96.951C129.59 97.1808 129.281 96.6445 129.605 96.4168C130.86 95.5366 132.253 94.8798 133.508 94.0019C133.837 93.772 134.146 94.3084 133.822 94.5361Z" fill="#AF9880"/>
<path d="M125.269 106.429C123.78 107.344 122.152 108.003 120.621 108.844C120.271 109.036 119.958 108.502 120.308 108.309C121.839 107.469 123.467 106.81 124.956 105.895C125.298 105.684 125.609 106.219 125.269 106.429Z" fill="#AF9880"/>
<path d="M107.904 115.937C106.296 116.318 104.632 116.32 102.989 116.32C102.59 116.32 102.59 115.7 102.989 115.7C104.577 115.7 106.187 115.707 107.74 115.339C108.13 115.247 108.294 115.845 107.904 115.937Z" fill="#AF9880"/>
<path d="M116.19 101.268C114.827 101.277 113.495 101.45 112.181 101.816C111.796 101.923 111.631 101.325 112.017 101.218C113.384 100.839 114.772 100.66 116.19 100.649C116.59 100.646 116.59 101.264 116.19 101.268Z" fill="#AF9880"/>
<path d="M111.356 93.2776C110.241 93.2776 109.126 93.2776 108.009 93.2776C107.61 93.2776 107.61 92.658 108.009 92.658C109.124 92.658 110.241 92.658 111.356 92.658C111.756 92.658 111.756 93.2776 111.356 93.2776Z" fill="#AF9880"/>
<path d="M97.9728 109.444C96.5118 109.444 95.0355 109.444 93.6139 109.061C93.2284 108.958 93.3927 108.36 93.7782 108.463C95.1472 108.831 96.5644 108.824 97.9706 108.824C98.3714 108.824 98.3714 109.444 97.9728 109.444Z" fill="#AF9880"/>
<path d="M88.8612 122.264C88.4625 122.264 88.4625 121.644 88.8612 121.644C89.2598 121.644 89.2598 122.264 88.8612 122.264Z" fill="#AF9880"/>
<path d="M88.8612 122.265C86.7255 122.241 84.671 121.547 82.5397 121.522C82.1411 121.518 82.1389 120.898 82.5397 120.903C84.671 120.929 86.7277 121.623 88.8612 121.647C89.2598 121.652 89.2598 122.269 88.8612 122.265Z" fill="#AF9880"/>
<path d="M86.6299 115.389C86.2313 115.389 86.2313 114.77 86.6299 114.77C87.0285 114.77 87.0307 115.389 86.6299 115.389Z" fill="#AF9880"/>
<path d="M86.4435 115.39C85.0789 115.39 83.7384 115.34 82.4571 114.821C82.0913 114.672 82.2512 114.074 82.6214 114.223C83.8545 114.722 85.1315 114.768 86.4435 114.771C86.8443 114.771 86.8443 115.39 86.4435 115.39Z" fill="#AF9880"/>
<path d="M70.1885 121.139C68.399 120.751 66.5109 120.58 64.9098 119.621C64.5681 119.416 64.8791 118.881 65.223 119.087C66.7716 120.015 68.6224 120.167 70.355 120.543C70.7427 120.626 70.5784 121.224 70.1885 121.139Z" fill="#AF9880"/>
<path d="M67.1095 115.389C65.8917 115.365 64.8709 114.923 63.9159 114.183C63.6005 113.938 64.0429 113.502 64.354 113.745C65.1732 114.38 66.0669 114.748 67.1095 114.77C67.5104 114.778 67.5104 115.398 67.1095 115.389Z" fill="#AF9880"/>
<path d="M105.222 70.4221C103.672 70.4308 102.127 70.5994 100.574 70.6082C100.174 70.6104 100.176 69.9908 100.574 69.9886C102.125 69.9798 103.672 69.8113 105.222 69.8025C105.621 69.8003 105.621 70.4177 105.222 70.4221Z" fill="#AF9880"/>
<path d="M100.574 62.0593C98.7123 62.0681 96.857 62.2367 94.9974 62.2454C94.5988 62.2476 94.5988 61.628 94.9974 61.6258C96.8592 61.617 98.7144 61.4485 100.574 61.4397C100.973 61.4397 100.973 62.0571 100.574 62.0593Z" fill="#AF9880"/>
<path d="M85.701 65.2184C84.021 65.2272 82.3497 65.4045 80.6806 65.5906C80.2842 65.6344 80.2885 65.0148 80.6806 64.9711C82.3497 64.785 84.0188 64.6076 85.701 64.5989C86.0997 64.5967 86.0997 65.2163 85.701 65.2184Z" fill="#AF9880"/>
<path d="M55.5244 15.4486L55.2134 15.2931C57.533 13.4081 61.0048 16.1929 62.2358 18.2663C63.7691 20.8432 64.0735 24.2914 63.9224 27.1617C62.3037 26.9143 61.3662 23.8492 60.2841 22.68C58.8297 21.1103 56.889 20.7512 55.3536 19.431C53.5356 17.8722 54.1752 16.2258 55.5244 15.4486Z" fill="#D1B49B"/>
</svg>
