<svg width="164" height="167" viewBox="0 0 164 167" fill="none" xmlns="http://www.w3.org/2000/svg">
<path d="M123.797 64.6716C123.797 64.6716 132.036 60.6408 131.686 61.3413C131.336 62.0418 128.18 69.403 128.18 69.403L138.174 65.8985L136.069 73.7841L144.659 70.4537L140.626 79.2159L125.899 75.8855L123.797 64.6716Z" fill="#D35133"/>
<path d="M108.414 155.497L99.5305 157.717L99.4138 158.885L107.362 157.015L97.5449 162.623L98.0121 163.323C98.0121 163.323 108.649 157.482 108.53 157.832C108.414 158.182 105.375 163.673 105.375 163.673L106.776 163.557L109.963 156.849L108.414 155.497Z" fill="#EF5C3F"/>
<path d="M77.3254 154.911L63.883 155.847L63.7662 156.897L74.8706 156.781L61.5449 159.585L61.6617 160.752L74.9873 158.417L72.4157 162.155L73.5857 162.272L78.9606 156.43L77.3254 154.911Z" fill="#EF5C3F"/>
<path d="M101.736 139.354L108.552 157.282L109.966 156.85L104.818 137.56L101.736 139.354Z" fill="#EF5C3F"/>
<path d="M73.8184 135.518L77.3245 156.547H78.9597L77.0908 135.518H73.8184Z" fill="#EF5C3F"/>
<path d="M42.8439 71.73C30.2212 74.534 19 93.4593 19 93.4593L25.3114 92.0583L20.4016 98.8338H29.9855L26.2458 103.975C26.2458 103.975 41.2066 105.142 49.8561 99.5343C58.5056 93.9283 42.8439 71.73 42.8439 71.73Z" fill="#D35133"/>
<path d="M56.3637 9.68318C58.1935 8.94583 59.9599 8.16546 61.9783 8.53824C63.72 8.8598 65.2303 9.89415 66.3593 11.2275C67.3532 12.3991 67.8818 13.757 68.183 15.242C68.431 16.4668 68.7691 18.3041 68.015 19.4183C67.8019 19.7317 68.3101 20.0225 68.5191 19.7132C69.3265 18.5191 69.0314 16.7065 68.8019 15.3833C68.515 13.7243 67.9249 12.2782 66.8798 10.9469C65.7364 9.49065 64.1053 8.43173 62.3 8.0098C60.132 7.50184 58.1853 8.32522 56.2079 9.11992C55.8637 9.2592 56.0153 9.82246 56.3637 9.68318Z" fill="#964022"/>
<path d="M60.2329 6.30554C59.3436 4.39047 56.8949 5.9553 56.5158 7.43819C56.6695 6.39566 56.106 3.48517 54.4093 4.07914C53.1368 4.52565 53.561 5.91024 54.1675 6.94867C53.2454 6.01264 51.6676 5.54566 50.7905 6.36289C48.9586 8.07109 51.4913 9.90423 53.1081 9.44748C51.6286 10.2606 50.016 12.3641 52.2844 13.2264C53.1306 13.548 54.2003 13.2141 54.8847 12.614C55.483 12.0897 55.5773 11.6964 55.5875 11.0963C55.7494 12.6017 56.8395 14.3877 58.6551 13.2285C60.946 11.7681 58.2514 10.3159 57.233 9.3676C58.5895 8.97229 61.114 8.20422 60.2329 6.30554Z" fill="#5794FF"/>
<path d="M56.1669 8.99279C56.1669 9.73423 55.6955 10.3364 55.1156 10.3364C54.5357 10.3364 54.0645 9.73423 54.0645 8.99279C54.0645 8.25134 54.5357 7.64917 55.1156 7.64917C55.6976 7.64917 56.1669 8.24929 56.1669 8.99279Z" fill="#FFA21A"/>
<path d="M83.3993 46.4974C82.9649 44.3325 82.2026 41.8521 81.2989 39.7465C80.0633 36.8709 79.3625 33.9092 77.092 31.6541C75.2478 29.823 73.131 28.2336 70.8974 26.892C70.0286 26.3697 69.0265 25.9765 68.297 25.2596C67.6925 24.6636 67.2683 23.9058 66.5962 23.3302C64.9241 21.9006 60.2807 20.2046 60.2602 20.3234L56.9877 19.3895C51.1312 18.7771 57.9877 27.3344 59.2028 28.7354C62.7991 32.8789 67.4323 36.2523 71.2458 40.2074C73.8482 42.9049 76.5121 45.8276 79.924 47.5154C81.51 48.2998 83.9096 49.0351 83.3993 46.4974Z" fill="#D38318"/>
<path d="M67.1555 21.259C57.9118 19.1924 44.619 30.9532 39.1027 49.0634C32.5577 70.5592 31.6212 101.87 52.6619 114.253C70.9874 125.039 103.856 130.844 121.624 114.72C134.345 103.177 145.001 73.5967 145.001 73.5967L139.624 74.7642L141.962 69.1562L130.741 72.6607C130.741 72.6607 135.181 65.1827 134.48 65.4182C133.779 65.6517 125.13 67.0547 125.13 67.0547L128.402 60.0458C128.402 60.0458 113.675 71.4952 80.0118 63.5503C74.7004 62.2968 73.1144 53.3646 75.8049 47.8959C82.5835 34.1095 77.8131 23.6411 67.1555 21.259Z" fill="#964022"/>
<path d="M61.7773 54.9057C61.7773 54.9057 68.0886 49.7648 68.3222 50.4653C68.5558 51.1657 73.4656 59.3442 73.4656 59.3442L74.9984 57.3738C74.1705 54.2401 74.4082 50.496 75.8037 47.6613C82.5822 33.8748 77.8118 23.4065 67.1542 21.0244C57.9556 18.968 44.7509 30.6018 39.1875 48.5604L40.5051 52.1018L47.7529 47.8968L50.7918 54.2053L56.8696 49.7668L61.7773 54.9057Z" fill="#D35133"/>
<path d="M49.6599 30.9837C49.6599 30.9837 51.1681 30.3017 52.7685 28.7533C54.3688 27.2048 54.8176 25.3389 54.8176 25.3389C54.8176 25.3389 48.1599 22.7132 47.3034 23.6246C46.4468 24.536 49.6599 30.9837 49.6599 30.9837Z" fill="#E8B618"/>
<path d="M61.9258 28.3518C61.9258 28.3518 62.8274 30.9612 64.3745 32.1041C65.9216 33.2449 67.856 32.7575 67.856 32.7575L61.9258 28.3518Z" fill="#564336"/>
<path d="M71.0394 75.2441C64.898 80.2991 64.3981 94.9007 74.1049 103.071C83.8097 111.241 106.287 110.985 106.287 110.985C106.287 110.985 100.412 104.859 101.178 104.859C101.945 104.859 108.33 104.093 108.33 104.093L101.434 100.009L110.373 94.9027L103.988 91.0726L111.139 89.5406C111.139 89.5406 102.967 81.8823 95.3034 77.2862C84.029 70.523 75.3815 71.67 71.0394 75.2441Z" fill="#D35133"/>
<path d="M79.6631 114.256L64.4688 113.322C66.4195 116.698 66.7843 122.113 67.9174 125.99C68.8723 129.253 71.1961 137.874 75.4562 138.329C83.9663 139.238 76.2595 116.563 79.6631 114.256Z" fill="#964022"/>
<path d="M104.73 118.141L89.5254 118.891C91.8368 122.028 92.7978 127.372 94.3532 131.1C95.6626 134.238 98.9269 142.547 103.21 142.531C111.767 142.494 101.601 120.81 104.73 118.141Z" fill="#964022"/>
<path d="M55.9336 19.369C55.9336 19.369 66.6445 22.5846 72.7284 28.6678C81.2549 37.1903 83.5808 47.7795 83.5808 47.7795L82.2898 35.3818C82.2898 35.3818 89.7016 24.0266 83.841 18.3346C74.7981 9.55397 65.2368 19.3669 65.2368 19.3669H55.9336V19.369Z" fill="#FFA21A"/>
<path d="M75.9206 21.8429C71.3489 18.2402 67.2117 17.6687 67.2117 17.6687L65.2363 19.3687C65.2363 19.3687 69.2588 20.3232 73.2321 23.8297C77.2054 27.3342 82.2894 35.3815 82.2894 35.3815L83.7504 32.7086C83.7524 32.7086 81.9984 26.6337 75.9206 21.8429Z" fill="#964022"/>
<path d="M70.5743 89.8106C71.478 90.9309 72.8222 91.6437 73.6849 92.7887C73.9082 93.0857 74.4164 92.7948 74.189 92.4937C73.2914 91.3037 71.9246 90.5582 70.9882 89.3968C70.7505 89.1039 70.3387 89.5197 70.5743 89.8106Z" fill="#964022"/>
<path d="M70.0594 83.2096C71.0081 84.6331 72.5471 85.4913 73.9036 86.4683C74.211 86.6895 74.502 86.1816 74.1987 85.9645C72.9282 85.0489 71.4508 84.246 70.5635 82.9147C70.3565 82.6034 69.8504 82.8942 70.0594 83.2096Z" fill="#964022"/>
<path d="M72.8824 78.7986C73.2594 78.7986 73.2594 78.2148 72.8824 78.2148C72.5053 78.2148 72.5053 78.7986 72.8824 78.7986Z" fill="#964022"/>
<path d="M72.736 78.7576C74.1745 79.4888 75.5064 80.4085 77.0146 81.0066C77.365 81.1458 77.5166 80.5805 77.1703 80.4433C75.7134 79.8657 74.4245 78.9604 73.0331 78.2538C72.695 78.0838 72.3999 78.5876 72.736 78.7576Z" fill="#964022"/>
<path d="M81.65 75.5268C82.027 75.5268 82.027 74.9431 81.65 74.9431C81.2729 74.9431 81.2729 75.5268 81.65 75.5268Z" fill="#964022"/>
<path d="M81.5026 75.4852C83.2034 76.2164 84.894 77.0009 86.7157 77.3839C87.0825 77.4617 87.2402 76.8985 86.8714 76.8206C85.0989 76.4478 83.4534 75.6921 81.7977 74.9813C81.4555 74.8339 81.1584 75.3377 81.5026 75.4852Z" fill="#964022"/>
<path d="M83.724 81.9124C85.1665 82.8034 86.9246 83.1966 88.2237 84.3211C88.5065 84.5669 88.9225 84.1552 88.6377 83.9074C87.2935 82.744 85.5128 82.3302 84.0211 81.4085C83.6973 81.2078 83.4043 81.7137 83.724 81.9124Z" fill="#964022"/>
<path d="M82.4355 89.0384C83.7655 89.8658 85.2757 90.4086 86.4683 91.4471C86.7511 91.6928 87.1671 91.2812 86.8823 91.0333C85.6486 89.9601 84.1077 89.3907 82.7327 88.5345C82.4109 88.3338 82.1179 88.8397 82.4355 89.0384Z" fill="#964022"/>
<path d="M79.7474 97.0999C81.3764 98.0871 83.2596 98.7958 84.4808 100.326C84.7165 100.621 85.1263 100.205 84.8948 99.9121C83.6428 98.3431 81.7146 97.6078 80.0445 96.596C79.7208 96.3994 79.4277 96.9032 79.7474 97.0999Z" fill="#964022"/>
<path d="M75.5975 100.56C76.7983 101.629 78.0914 102.584 79.3373 103.597C79.6263 103.833 80.0423 103.423 79.7513 103.184C78.5053 102.17 77.2102 101.215 76.0114 100.146C75.7307 99.8963 75.3167 100.308 75.5975 100.56Z" fill="#964022"/>
<path d="M89.1304 105.551C89.5075 105.551 89.5075 104.967 89.1304 104.967C88.7534 104.967 88.7534 105.551 89.1304 105.551Z" fill="#964022"/>
<path d="M88.9834 105.512C90.8625 106.538 93.0285 106.8 94.9444 107.732C95.2825 107.896 95.5776 107.392 95.2395 107.228C93.3215 106.298 91.1555 106.032 89.2785 105.008C88.9465 104.826 88.6515 105.33 88.9834 105.512Z" fill="#964022"/>
<path d="M95.0141 102.503C96.1371 102.954 97.2457 103.433 98.4036 103.788C98.7642 103.898 98.9179 103.335 98.5593 103.224C97.4015 102.868 96.2908 102.391 95.1698 101.94C94.8194 101.799 94.6678 102.364 95.0141 102.503Z" fill="#964022"/>
<path d="M90.8051 96.4294C92.0202 96.7919 93.2436 97.1176 94.5059 97.2568C94.8809 97.2978 94.8768 96.7141 94.5059 96.6731C93.2969 96.54 92.1227 96.2123 90.9608 95.8661C90.5981 95.7576 90.4444 96.3208 90.8051 96.4294Z" fill="#964022"/>
<path d="M99.221 95.1422C100.342 95.4106 101.377 95.9288 102.424 96.3978C102.764 96.5494 103.063 96.0475 102.719 95.8939C101.627 95.4065 100.545 94.8596 99.3767 94.579C99.0099 94.493 98.8542 95.0562 99.221 95.1422Z" fill="#964022"/>
<path d="M92.2089 88.2501C94.0777 88.7642 95.8216 89.6368 97.7806 89.7802C98.1556 89.8068 98.1536 89.223 97.7806 89.1964C95.881 89.0571 94.1761 88.1866 92.3646 87.6889C91.9999 87.5865 91.8462 88.1498 92.2089 88.2501Z" fill="#964022"/>
<path d="M94.3883 80.7842C94.7653 80.7842 94.7653 80.2004 94.3883 80.2004C94.0112 80.1984 94.0112 80.7842 94.3883 80.7842Z" fill="#964022"/>
<path d="M94.2418 80.7438C96.7397 82.0936 99.4159 83.132 101.664 84.9037C101.957 85.1352 102.373 84.7235 102.078 84.49C99.7847 82.6835 97.0839 81.6163 94.5389 80.2379C94.207 80.0597 93.9119 80.5656 94.2418 80.7438Z" fill="#964022"/>
<path d="M41.1074 56.7852C40.9414 58.688 40.9229 60.6051 40.5909 62.4895C40.5274 62.8582 41.0889 63.0159 41.1545 62.6452C41.4947 60.7076 41.5193 58.7413 41.6914 56.7852C41.7263 56.4104 41.1402 56.4125 41.1074 56.7852Z" fill="#D35133"/>
<path d="M47.2455 57.3126C47.4135 59.2359 47.4196 61.1653 47.4216 63.0947C47.4216 63.4716 48.0056 63.4716 48.0056 63.0947C48.0056 61.1653 47.9974 59.2359 47.8294 57.3126C47.7966 56.9398 47.2127 56.9357 47.2455 57.3126Z" fill="#D35133"/>
<path d="M57.9483 61.9443C58.6286 63.6238 59.4974 65.2399 59.8765 67.0259C59.9544 67.3946 60.5179 67.2389 60.44 66.8703C60.0609 65.0842 59.1921 63.4682 58.5118 61.7887C58.3725 61.4446 57.8069 61.5961 57.9483 61.9443Z" fill="#D35133"/>
<path d="M64.191 59.8821C64.568 59.8821 64.568 59.2983 64.191 59.2983C63.8139 59.2963 63.8139 59.8821 64.191 59.8821Z" fill="#D35133"/>
<path d="M63.9834 59.7963C64.7785 60.8101 65.4035 61.951 66.0408 63.0672C66.2273 63.395 66.7334 63.1 66.5449 62.7723C65.8809 61.611 65.2232 60.4394 64.3953 59.3846C64.1658 59.0855 63.7539 59.5034 63.9834 59.7963Z" fill="#D35133"/>
<path d="M50.0607 75.7886C50.6242 77.6484 51.2778 79.4815 51.6385 81.3966C51.7081 81.7673 52.2716 81.6096 52.202 81.2409C51.8413 79.3279 51.1877 77.4927 50.6242 75.6329C50.5156 75.2745 49.9521 75.4261 50.0607 75.7886Z" fill="#D35133"/>
<path d="M41.6348 77.1142C41.6471 79.2648 41.9934 81.3847 42.3458 83.5005C42.4073 83.8712 42.9708 83.7135 42.9093 83.3448C42.5651 81.2803 42.2311 79.2116 42.2188 77.1142C42.2167 76.7373 41.6327 76.7373 41.6348 77.1142Z" fill="#D35133"/>
<path d="M47.9862 97.5884C49.0723 99.0447 50.0785 100.558 50.9658 102.144C51.1502 102.471 51.6543 102.178 51.4699 101.849C50.5826 100.263 49.5765 98.7477 48.4904 97.2934C48.267 96.9944 47.7608 97.2853 47.9862 97.5884Z" fill="#D35133"/>
<path d="M57.3217 92.5659C58.4118 93.8132 59.7377 94.823 60.8279 96.0703C61.0758 96.355 61.4877 95.9392 61.2418 95.6566C60.1516 94.4092 58.8258 93.3995 57.7356 92.1521C57.4876 91.8674 57.0757 92.2832 57.3217 92.5659Z" fill="#D35133"/>
<path d="M62.2316 74.515C62.9447 75.3855 63.8115 76.0921 64.6865 76.7926C64.9775 77.0261 65.3935 76.6144 65.1005 76.3789C64.2255 75.6784 63.3586 74.9718 62.6455 74.1013C62.4058 73.8104 61.9939 74.2262 62.2316 74.515Z" fill="#D35133"/>
<path d="M75.0308 68.7328C75.9406 69.4599 76.8545 70.1706 77.8955 70.7052C78.2295 70.8772 78.5266 70.3734 78.1905 70.2013C77.1947 69.6893 76.3156 69.0154 75.4447 68.319C75.1517 68.0876 74.7357 68.4972 75.0308 68.7328Z" fill="#D35133"/>
<path d="M89.8154 68.0783C91.6596 69.1474 93.8338 69.3379 95.9239 69.3441C96.3009 69.3461 96.3009 68.7603 95.9239 68.7603C93.9362 68.7542 91.8666 68.5903 90.1105 67.5744C89.7847 67.386 89.4896 67.8899 89.8154 68.0783Z" fill="#D35133"/>
<path d="M101.183 75.6533C101.56 75.6533 101.56 75.0696 101.183 75.0696C100.806 75.0696 100.806 75.6533 101.183 75.6533Z" fill="#D35133"/>
<path d="M101.183 75.6537C103.406 75.6435 105.593 75.2994 107.749 74.7668C108.113 74.6767 107.96 74.1135 107.593 74.2036C105.486 74.7238 103.357 75.0577 101.183 75.07C100.806 75.07 100.806 75.6537 101.183 75.6537Z" fill="#D35133"/>
<path d="M113.454 69.6954C115.141 69.679 116.8 69.3472 118.44 68.9847C118.809 68.9028 118.651 68.3395 118.284 68.4214C116.694 68.7737 115.087 69.0974 113.452 69.1117C113.079 69.1137 113.077 69.6975 113.454 69.6954Z" fill="#D35133"/>
<path d="M110.124 83.7136C111.737 83.5128 113.247 82.8636 114.858 82.6628C115.226 82.6157 115.231 82.032 114.858 82.0791C113.245 82.2798 111.735 82.9291 110.124 83.1298C109.755 83.1749 109.751 83.7607 110.124 83.7136Z" fill="#D35133"/>
<path d="M68.0166 103.955C69.2461 104.997 70.2994 106.239 71.3485 107.459C71.5944 107.746 72.0063 107.33 71.7625 107.046C70.7153 105.825 69.6621 104.584 68.4305 103.541C68.1457 103.3 67.7297 103.711 68.0166 103.955Z" fill="#D35133"/>
<path d="M59.6036 107.634C60.8495 108.683 62.29 109.472 63.46 110.612C63.7305 110.877 64.1424 110.463 63.874 110.199C62.7019 109.056 61.2634 108.267 60.0175 107.221C59.7307 106.981 59.3147 107.393 59.6036 107.634Z" fill="#D35133"/>
<path d="M54.1662 110.787C55.2953 111.883 56.6928 112.586 58.1518 113.141C58.5042 113.276 58.6558 112.711 58.3075 112.578C56.9448 112.059 55.6334 111.4 54.5801 110.374C54.3097 110.114 53.8957 110.525 54.1662 110.787Z" fill="#D35133"/>
<path d="M83.9242 120.153C85.7664 120.688 87.7008 120.858 89.6126 120.864C89.9896 120.866 89.9896 120.28 89.6126 120.28C87.7499 120.274 85.875 120.113 84.0799 119.59C83.7172 119.484 83.5635 120.047 83.9242 120.153Z" fill="#D35133"/>
<path d="M73.2292 117.522C74.3419 117.707 75.4402 117.854 76.5406 117.522C76.9013 117.414 76.7476 116.851 76.3849 116.959C75.3829 117.26 74.3972 117.127 73.385 116.959C73.0161 116.898 72.8583 117.461 73.2292 117.522Z" fill="#D35133"/>
<path d="M82.6976 112.441C84.3942 112.808 86.1237 112.97 87.8593 112.978C88.2363 112.98 88.2363 112.396 87.8593 112.394C86.1749 112.386 84.5008 112.234 82.8533 111.878C82.4865 111.798 82.3308 112.361 82.6976 112.441Z" fill="#D35133"/>
<path d="M103.637 119.813C106.208 119.966 108.708 119.133 111.077 118.225C111.426 118.092 111.274 117.527 110.922 117.662C108.598 118.551 106.157 119.378 103.637 119.229C103.26 119.204 103.264 119.79 103.637 119.813Z" fill="#D35133"/>
<path d="M117.168 112.892C118.457 111.287 120.369 110.375 121.902 109.038C122.186 108.79 121.771 108.378 121.488 108.624C119.953 109.963 118.045 110.871 116.754 112.479C116.523 112.769 116.932 113.187 117.168 112.892Z" fill="#D35133"/>
<path d="M109.248 109.474C109.625 109.474 109.625 108.891 109.248 108.891C108.871 108.891 108.871 109.474 109.248 109.474Z" fill="#D35133"/>
<path d="M109.326 109.463C110.715 109.09 111.895 108.295 113.078 107.507C113.389 107.298 113.096 106.792 112.783 107.003C111.643 107.765 110.51 108.541 109.17 108.902C108.807 108.996 108.961 109.559 109.326 109.463Z" fill="#D35133"/>
<path d="M112.377 99.9699C113.533 99.382 114.592 98.6447 115.592 97.8213C115.883 97.5817 115.467 97.17 115.178 97.4076C114.217 98.2002 113.192 98.8987 112.082 99.464C111.746 99.6381 112.041 100.142 112.377 99.9699Z" fill="#D35133"/>
<path d="M122.999 100.743C124.431 98.6393 126.62 97.1155 127.732 94.7846C127.894 94.4467 127.39 94.1497 127.228 94.4897C126.118 96.8144 123.925 98.3464 122.495 100.448C122.282 100.759 122.788 101.052 122.999 100.743Z" fill="#D35133"/>
<path d="M119.974 90.2859C121.545 89.0427 122.783 87.4758 124.007 85.9048C124.236 85.6119 123.824 85.1941 123.593 85.4911C122.369 87.0621 121.132 88.6289 119.56 89.8722C119.265 90.1077 119.683 90.5174 119.974 90.2859Z" fill="#D35133"/>
<path d="M121.026 82.2269C121.959 81.1188 122.983 80.0947 124.006 79.0726C124.272 78.8063 123.861 78.3926 123.592 78.6589C122.57 79.6809 121.545 80.705 120.613 81.8131C120.371 82.0999 120.783 82.5157 121.026 82.2269Z" fill="#D35133"/>
<path d="M131.194 84.681C132.237 83.7819 132.942 82.6041 133.694 81.4674C133.903 81.152 133.397 80.8591 133.19 81.1724C132.465 82.2682 131.789 83.3988 130.782 84.2673C130.496 84.5131 130.91 84.9248 131.194 84.681Z" fill="#D35133"/>
<path d="M118.688 75.4365C119.541 75.0044 120.34 74.4821 121.026 73.8144C121.297 73.5502 120.883 73.1385 120.612 73.4006C119.961 74.0356 119.201 74.523 118.393 74.9327C118.055 75.1027 118.352 75.6065 118.688 75.4365Z" fill="#D35133"/>
<path d="M138.382 82.2263C139.078 81.5115 139.613 80.6615 140.31 79.9487C140.572 79.6783 140.16 79.2667 139.896 79.535C139.199 80.2498 138.664 81.0998 137.968 81.8126C137.703 82.0829 138.117 82.4967 138.382 82.2263Z" fill="#D35133"/>
<path d="M28.3978 85.6018C29.5105 84.8256 30.2154 83.5577 31.658 83.3529C32.0288 83.2997 31.8711 82.7385 31.5022 82.7897C29.9756 83.0047 29.2708 84.2808 28.1007 85.098C27.7974 85.311 28.0884 85.8169 28.3978 85.6018Z" fill="#964022"/>
<path d="M31.2635 89.2351C32.0073 88.4916 32.7593 87.7359 33.6589 87.1787C33.9785 86.9801 33.6855 86.4742 33.3638 86.6749C32.4212 87.2586 31.6303 88.0431 30.8496 88.8235C30.5832 89.0897 30.9971 89.5014 31.2635 89.2351Z" fill="#964022"/>
<path d="M22.6422 91.072C23.0192 91.072 23.0192 90.4883 22.6422 90.4883C22.2651 90.4883 22.2651 91.072 22.6422 91.072Z" fill="#964022"/>
<path d="M23.0244 90.812C23.5797 90.2672 24.2027 89.8105 24.8932 89.4561C25.2293 89.2841 24.9322 88.7802 24.5982 88.9523C23.8646 89.3292 23.1986 89.8228 22.6105 90.4003C22.342 90.6625 22.7559 91.0763 23.0244 90.812Z" fill="#964022"/>
<path d="M25.6227 96.1555C25.9998 96.1555 25.9998 95.5718 25.6227 95.5718C25.2456 95.5718 25.2456 96.1555 25.6227 96.1555Z" fill="#964022"/>
<path d="M25.9447 95.9413C26.4508 95.6033 26.9692 95.2694 27.4057 94.8434C27.6762 94.5812 27.2622 94.1675 26.9918 94.4297C26.5901 94.8209 26.1127 95.1261 25.6475 95.4353C25.3381 95.6443 25.6291 96.1502 25.9447 95.9413Z" fill="#964022"/>
<path d="M34.3883 100.887C34.7653 100.887 34.7653 100.304 34.3883 100.304C34.0112 100.302 34.0112 100.887 34.3883 100.887Z" fill="#964022"/>
<path d="M34.4662 100.875C35.9456 100.478 37.2161 99.6052 38.5685 98.9171C38.9046 98.7471 38.6095 98.2432 38.2734 98.4132C36.9682 99.0768 35.7387 99.9289 34.3104 100.312C33.9477 100.41 34.1014 100.973 34.4662 100.875Z" fill="#964022"/>
<path d="M35.0614 95.7644C36.3688 95.1868 37.5286 94.3471 38.627 93.4397C38.9179 93.2001 38.502 92.7884 38.213 93.026C37.1536 93.9006 36.0266 94.6994 34.7663 95.2585C34.4221 95.4122 34.7192 95.916 35.0614 95.7644Z" fill="#964022"/>
<path d="M33.6574 81.9215C34.9052 81.2005 36.0937 80.3731 37.4441 79.8487C37.7924 79.7135 37.6408 79.1482 37.2883 79.2855C35.8888 79.8282 34.6553 80.67 33.3623 81.4176C33.0365 81.6061 33.3315 82.1099 33.6574 81.9215Z" fill="#964022"/>
</svg>
