<svg width="164" height="167" viewBox="0 0 164 167" fill="none" xmlns="http://www.w3.org/2000/svg">
<path d="M149.056 118.104C145.467 117.683 141.775 118.17 138.42 119.505C143.535 124.986 147.497 131.538 149.979 138.611C137.444 133.335 123.015 132.705 110.069 136.874C113.101 138.914 115.87 141.344 118.289 144.086C114.4 143.202 110.313 143.212 106.427 144.115C107.841 145.72 109.061 147.497 110.053 149.392C101.266 146.62 92.0572 145.19 82.8419 145.163C81.105 145.157 78.9298 145.519 78.4486 147.187C77.8916 145.17 75.2483 144.742 73.1555 144.798C64.0424 145.032 54.9755 146.953 46.5513 150.44C46.1492 146.716 46.4524 142.912 47.4445 139.3C42.9951 140.592 38.783 142.695 35.0784 145.473C33.0152 140.787 31.7925 135.734 31.4761 130.625C26.7663 132.488 22.1488 134.594 17.6532 136.927C17.818 130.062 18.2136 122.574 22.752 117.419C28.0023 111.457 36.901 110.702 44.844 110.755C63.5414 110.873 82.2355 113.088 100.903 111.991C110.086 111.45 119.202 110.109 128.391 109.66C132.214 109.473 136.228 108.869 139.653 110.659C143.242 112.531 146.468 114.973 149.056 118.104Z" fill="#A86B42"/>
<path d="M147.389 110.198C141.822 110.597 136.305 111.707 131.018 113.5C141.255 115.316 150.434 122.323 154.887 131.723C143.539 128.117 131.364 127.142 119.588 128.892C125.247 131.054 130.089 135.292 132.976 140.618C120.247 137.636 106.939 137.138 94.0222 139.162C96.6819 140.371 98.9231 142.481 100.288 145.061C84.3389 139.399 66.683 138.648 50.3092 142.935C51.8484 141.047 53.7303 139.439 55.8363 138.209C46.9145 136.98 37.6993 137.955 29.2322 141.024C32.5281 136.449 36.5457 132.392 41.0907 129.05C30.7351 126.661 19.5852 127.893 10.0009 132.484C14.2921 123.473 23.9984 118.497 33.2828 114.832C27.4623 112.956 21.1475 112.65 15.1754 113.955C19.8028 109.463 26.0055 106.981 32.1853 105.139C43.5791 101.737 55.5101 100.135 67.3982 100.406C78.6239 100.663 89.7111 102.571 100.808 104.117C106.395 104.895 112.004 105.62 117.637 105.939C121.859 106.18 126.048 105.551 130.273 105.801C136.186 106.15 142.039 107.637 147.389 110.198Z" fill="#C17A49"/>
<path d="M121.256 122.068C119.253 124.596 116.22 126.063 113.234 127.292C94.6852 134.935 73.1699 136.451 54.5681 128.93C51.1074 127.53 47.6435 125.737 45.376 122.767C43.1084 119.797 42.357 115.398 44.4894 112.329C45.8012 110.441 47.9665 109.327 50.155 108.615C53.3651 107.573 56.7599 107.253 60.1282 107.049C72.3723 106.308 84.7054 107.013 96.7847 109.142C103.314 110.296 109.767 111.868 116.342 112.751C118.221 113.005 121.352 112.655 122.624 114.336C124.196 116.419 122.628 120.345 121.256 122.068Z" fill="#A86B42"/>
<path d="M102.188 136.738C101.76 138.626 100.384 140.199 98.75 141.269C95.9648 143.092 92.423 143.596 89.1265 143.047C85.83 142.498 82.7663 140.961 80.0767 139.007C79.898 138.876 79.7151 138.741 79.499 138.688C79.1456 138.593 78.7798 138.725 78.4347 138.847C73.4713 140.593 68.0339 140.646 62.8211 139.888C58.4521 139.253 53.7756 137.795 51.3853 134.136C50.4998 132.78 49.9885 131.113 50.3294 129.535C50.5414 128.56 51.0652 127.671 51.6971 126.889C54.2578 123.722 58.4397 122.3 62.4844 121.595C69.1065 120.44 75.899 120.801 82.5917 121.403C85.7677 121.69 88.9561 122.03 92.0364 122.853C93.5495 123.259 95.1167 123.832 96.0978 125.041C96.9832 126.131 97.2534 127.569 97.7647 128.872C98.4299 130.568 99.5897 130.986 100.841 132.088C102.117 133.21 102.554 135.136 102.188 136.738Z" fill="#A86B42"/>
<path d="M67.5756 32.2175C68.0436 30.853 68.4951 29.439 68.4094 27.9988C68.327 26.5585 67.592 25.0687 66.2737 24.4854C65.2849 24.047 64.1446 24.1789 63.08 24.37C64.0457 22.3595 63.726 19.7987 62.2989 18.0881C60.8718 16.3776 58.4065 15.6063 56.2576 16.1963C54.1087 16.7863 52.385 18.711 52.0356 20.9127C52.1279 19.8053 51.3303 18.7242 50.2822 18.3518C49.2341 17.9761 48.018 18.2529 47.1314 18.922C46.1954 19.6273 45.6153 20.705 45.1605 21.7861C44.3596 23.6878 43.8586 25.7081 43.6016 27.7549C43.0874 31.8879 43.7827 36.535 46.9006 39.2904C49.3791 41.4788 53.0112 42.0523 56.2345 41.3107C57.655 40.9844 59.0129 40.4241 60.2851 39.7122C61.4914 39.0366 62.6384 37.682 63.8678 37.1645C64.0392 37.092 64.2929 36.9239 64.4215 36.8679C64.4874 36.8382 64.6555 37.2173 64.751 37.1744C65.2256 36.9635 65.6047 36.3702 65.9013 35.9352C66.6659 34.808 67.134 33.4995 67.5756 32.2175Z" fill="#EF5C3F"/>
<path d="M69.2024 39.8773C72.4092 45.1671 76.2094 50.4471 81.7497 53.1991C85.3026 54.9624 90.8133 58.1363 98.5981 58.4791C107.144 58.8548 113.525 54.4977 117.582 52.2302C120.614 50.5328 130.993 62.3913 133.053 65.1895C135.555 68.5941 136.296 67.6581 136.303 71.8834C136.316 78.3663 134.79 84.757 132.938 90.9696C129.428 102.736 124.227 114.769 114.234 121.908C108.037 126.334 100.473 128.496 92.9193 129.472C83.3383 130.708 73.5265 130.151 64.1498 127.837C59.1829 126.611 54.2359 124.841 50.2545 121.628C46.4412 118.549 43.7319 114.324 41.3853 110.023C38.1356 104.064 35.433 97.7624 33.8839 91.1542C30.8781 78.3169 32.3251 64.8698 34.619 51.8874C35.4067 47.4248 36.313 42.926 38.2575 38.8325C40.6273 33.8492 46.4445 27.3761 52.3836 26.8949C60.8704 26.2061 65.3924 33.5921 69.2024 39.8773Z" fill="#F6D870"/>
<path d="M145.048 70.5613C146.043 67.9345 146.963 65.0902 146.297 62.3612C145.631 59.6323 142.744 57.2626 140.091 58.1854C140.668 56.4089 141.228 54.5633 141.027 52.7077C140.826 50.8521 139.659 48.9702 137.847 48.5186C135.292 47.8825 133.018 50.1732 131.423 52.2693C132.25 50.7401 132.507 48.8614 131.901 47.23C131.291 45.6018 129.745 44.3 128.012 44.2011C124.983 44.0231 122.936 47.0586 120.909 49.3097C119.353 51.04 117.472 52.4737 115.392 53.5185C113.77 54.3325 112.004 54.9291 110.633 56.1156C108.286 58.1524 107.594 61.478 107.327 64.5728C106.915 69.3682 107.195 74.2197 108.164 78.9361C109.242 84.1864 111.259 89.407 114.986 93.2599C119.218 97.6368 120.349 116.39 124.66 110.464C130.101 102.996 141.788 79.1701 145.048 70.5613Z" fill="#F6D870"/>
<path d="M34.6137 51.8839C35.2728 48.153 36.0144 44.399 37.3755 40.8757C37.247 41.558 37.1218 42.2435 36.9999 42.9257C34.7059 55.9081 33.2591 69.3552 36.2649 82.1926C37.8139 88.8041 40.5132 95.1025 43.7663 101.061C46.1129 105.362 48.8221 109.588 52.6354 112.666C56.6168 115.88 61.5638 117.649 66.5307 118.875C75.9107 121.189 85.7192 121.749 95.3002 120.51C102.854 119.535 110.418 117.376 116.614 112.946C126.304 106.025 131.489 94.4993 134.992 83.0759C134.419 85.7323 133.704 88.3624 132.926 90.9629C129.416 102.729 124.215 114.762 114.222 121.901C108.025 126.327 100.462 128.489 92.9074 129.465C83.3264 130.701 73.5146 130.144 64.1379 127.83C59.171 126.604 54.224 124.834 50.2426 121.621C46.4293 118.543 43.7201 114.317 41.3735 110.016C38.1237 104.057 35.4211 97.7556 33.8721 91.1474C30.8729 78.3134 32.3197 64.8663 34.6137 51.8839Z" fill="#E6B714"/>
<path d="M66.3868 66.5888C72.6028 65.2276 78.7495 68.7871 83.9801 72.4125C89.2139 76.0347 94.8597 80.0523 101.217 79.726C102.467 79.6634 103.729 79.4294 104.955 79.67C106.181 79.9139 107.4 80.8104 107.506 82.0562C107.625 83.4668 106.349 84.5677 105.166 85.3455C107.621 86.0442 110.466 87.1219 111.088 89.5971C111.55 91.423 110.489 93.3808 108.94 94.4585C107.391 95.533 105.456 95.8823 103.577 96.0142C105.179 96.8183 107.074 98.3476 106.349 99.9857C106.141 100.454 105.743 100.81 105.331 101.113C103.531 102.434 101.217 103.038 99.0026 102.764C100.42 102.579 101.224 104.649 100.469 105.859C99.7145 107.072 98.1786 107.507 96.7713 107.747C94.4576 108.146 92.1044 108.288 89.761 108.222C76.9368 107.859 64.4851 100.836 57.5374 90.0552C55.7214 87.2373 54.2383 84.0832 54.0834 80.7346C53.7637 73.7045 59.8544 68.0192 66.3868 66.5888Z" fill="#E6B714"/>
<path d="M68.3771 62.0114C74.593 60.6502 80.7398 64.2097 85.9703 67.8351C91.2041 71.4573 96.8499 75.4749 103.208 75.1487C104.457 75.086 105.719 74.8487 106.945 75.0926C108.171 75.3365 109.391 76.233 109.496 77.4788C109.615 78.8895 108.339 79.9903 107.156 80.7681C109.611 81.4668 112.456 82.5446 113.079 85.0197C113.54 86.8456 112.479 88.8034 110.93 89.8811C109.381 90.9556 107.446 91.3049 105.567 91.4368C107.169 92.241 109.064 93.7702 108.339 95.4083C108.132 95.8763 107.733 96.2322 107.321 96.5355C105.521 97.8571 103.208 98.4602 100.993 98.1867C102.41 98.0021 103.214 100.072 102.459 101.281C101.705 102.494 100.169 102.929 98.7615 103.17C96.4511 103.569 94.0946 103.711 91.7512 103.645C78.9271 103.282 66.4753 96.2586 59.5277 85.4779C57.7116 82.6599 56.2285 79.5058 56.0736 76.1572C55.7539 69.1271 61.8447 63.4418 68.3771 62.0114Z" fill="#FFE8AE"/>
<path d="M34.4405 51.8838C35.2348 47.4212 36.1477 42.9224 38.1087 38.8289C40.4949 33.8456 46.3615 27.3725 52.3468 26.8913C60.9061 26.2058 65.4611 33.5885 69.304 39.877C71.0673 42.7642 73.0119 45.648 75.3223 48.1199C73.8721 51.8574 70.7971 53.713 66.5026 51.3169C65.8038 53.4263 64.0175 55.15 61.8752 55.7828C59.7296 56.4156 57.284 55.9377 55.5405 54.5469C52.9632 58.3964 46.645 58.9831 43.3953 55.6708C41.8133 56.7353 40.1291 57.7175 38.2702 58.1591C36.6783 58.5381 34.9315 58.4755 33.4714 57.7801C33.7647 55.8092 34.0911 53.8416 34.4405 51.8838Z" fill="#FFE8AE"/>
<path d="M77.6142 98.369C78.0954 97.5154 77.8811 96.2366 76.988 95.8312C78.013 95.9037 79.0578 95.9729 80.0498 95.706C81.0419 95.439 81.9845 94.7699 82.3009 93.7944C82.7953 92.2585 81.6351 90.7259 80.5574 89.5295C82.4163 89.7108 84.6673 89.7174 85.6825 88.1486C86.7602 86.4842 85.6099 84.2595 84.1927 82.8686C85.7022 82.9411 87.4523 82.9115 88.4048 81.7348C89.1167 80.8581 89.1233 79.5629 88.6882 78.5214C88.2532 77.4799 87.4457 76.6427 86.6151 75.8781C88.1115 76.501 89.8879 75.3277 90.4285 73.7984C90.7778 72.813 90.7152 71.8506 90.5208 70.8948C91.8259 71.7187 93.1607 72.49 94.5285 73.1426C94.8844 75.2156 93.4376 77.0943 91.0217 76.6592C91.8523 77.3151 92.6927 77.9809 93.2958 78.8477C93.899 79.7145 94.2418 80.8252 93.955 81.8436C93.6221 83.0268 92.4982 83.8508 91.315 84.1771C90.1318 84.5034 88.8761 84.4144 87.6534 84.3221C88.9882 85.5218 90.0033 87.0708 90.5768 88.7748C90.7251 89.2131 90.8404 89.6976 90.679 90.1327C90.5306 90.5249 90.178 90.8017 89.8221 91.0226C88.2763 91.9784 86.3185 92.242 84.575 91.7279C85.9263 92.4365 86.7635 94.1108 86.3251 95.5708C85.8901 97.0342 84.084 97.9834 82.6964 97.344C83.8961 98.3361 83.461 100.445 82.2053 101.368C81.9186 101.579 81.6055 101.741 81.2792 101.866C79.4269 101.286 77.6142 100.571 75.8608 99.7302C76.5826 99.46 77.2418 99.0282 77.6142 98.369Z" fill="#E8B618"/>
<path d="M42.541 32.4919C42.541 32.4919 30.1816 31.3944 29.595 32.4919C29.0083 33.5895 37.3764 40.8799 37.3764 40.8799C37.3764 40.8799 41.4468 40.2767 42.541 38.7079C43.6352 37.1391 42.541 32.4919 42.541 32.4919Z" fill="#E8B618"/>
<path opacity="0.32" d="M60.0453 18.4512C60.2133 18.6424 60.3913 18.8665 60.3715 19.1203C60.3518 19.374 60.1244 19.5751 59.8838 19.6608C59.6432 19.7465 59.3795 19.7498 59.1257 19.7794C57.9458 19.9277 56.8878 20.811 56.5319 21.9481C56.4528 22.1986 56.4033 22.4688 56.2385 22.6765C56.0177 22.9566 55.6189 23.0621 55.2696 22.983C54.9202 22.9072 54.6235 22.6732 54.406 22.3864C53.8919 21.7108 53.8293 20.7583 54.1226 19.964C54.4192 19.1697 55.0355 18.5237 55.7507 18.0656C57.0757 17.2218 58.9477 17.2021 60.0453 18.4512Z" fill="white"/>
<path opacity="0.32" d="M48.3883 21.6282C47.8247 22.1819 47.9269 23.0915 47.7918 23.8693C47.7423 24.1528 47.5973 24.4824 47.3073 24.5153C47.1919 24.5285 47.0766 24.489 46.9744 24.4329C46.4767 24.1561 46.2724 23.5332 46.2757 22.963C46.2855 21.6282 47.3765 20.2637 48.7047 19.9835C50.847 19.5386 48.9617 21.0646 48.3883 21.6282Z" fill="white"/>
<path d="M50.1913 65.1391C50.1946 66.8331 50.1287 68.8337 48.7115 70.0169C48.1149 70.5113 47.3502 70.7651 46.5757 70.6596C45.7616 70.5476 45.1651 70.0103 44.7992 69.2918C44.3609 68.4283 43.9291 67.3769 44.1038 66.3948C44.1763 65.9927 44.7894 66.1641 44.7168 66.5629C44.6279 67.0605 44.7861 67.5549 44.9541 68.0196C45.1058 68.4316 45.2607 68.8535 45.4914 69.2292C45.9528 69.9774 46.7998 70.2114 47.6172 69.9279C48.4148 69.6511 48.9553 68.8897 49.2256 68.1185C49.5617 67.1627 49.5551 66.1377 49.5551 65.1391C49.5551 64.7304 50.1913 64.7271 50.1913 65.1391Z" fill="#EA9C00"/>
<path d="M44.0956 71.9022C44.1649 72.8976 43.9275 73.9061 43.4233 74.7696C42.9619 75.5606 42.1774 76.4538 41.2348 76.635C40.223 76.8295 39.2573 76.1176 38.6014 75.4222C37.9257 74.7037 37.4512 73.8138 37.2369 72.8514C37.148 72.4526 37.7609 72.2812 37.8499 72.6833C38.0279 73.4743 38.3872 74.2192 38.9211 74.8322C39.4352 75.4222 40.3087 76.2198 41.1623 76.0022C41.9467 75.8045 42.5795 74.997 42.9453 74.3214C43.3474 73.5798 43.5188 72.7426 43.4562 71.9022C43.4331 71.4935 44.0693 71.4968 44.0956 71.9022Z" fill="#EA9C00"/>
<path d="M49.8183 79.2363C49.8216 80.0339 49.7161 80.8381 49.4887 81.6028C49.2942 82.2586 49.024 82.9112 48.5658 83.4287C48.1539 83.8967 47.5639 84.2032 46.9311 84.1241C46.2522 84.0417 45.7018 83.5803 45.2997 83.0562C44.7789 82.3806 44.4461 81.5665 44.3175 80.7228C44.2912 80.5514 44.3603 80.3833 44.5383 80.3306C44.6899 80.2877 44.9041 80.3833 44.9305 80.5514C45.0525 81.3424 45.3524 82.1268 45.8666 82.7497C46.2818 83.254 46.941 83.7121 47.6068 83.3858C48.2198 83.0859 48.556 82.3773 48.7702 81.7675C49.0537 80.9502 49.1921 80.0965 49.1855 79.2297C49.1822 78.8243 49.8183 78.8244 49.8183 79.2363Z" fill="#EA9C00"/>
<path d="M43.6347 86.0526C43.8292 87.3643 43.6908 88.7914 43.0843 89.9911C42.8404 90.4723 42.3921 90.9634 41.8022 90.9073C41.199 90.8513 40.7278 90.2581 40.3883 89.8065C39.9599 89.2397 39.6534 88.5838 39.482 87.8949C39.3831 87.4994 39.9961 87.3281 40.095 87.7269C40.2532 88.363 40.53 88.9595 40.9321 89.4802C41.2123 89.8428 41.7528 90.5712 42.2307 90.1131C42.669 89.6879 42.8404 88.9529 42.959 88.3761C43.1073 87.6708 43.1272 86.9359 43.0217 86.2239C42.9953 86.0526 43.0645 85.8845 43.2425 85.8317C43.3941 85.7889 43.6116 85.8845 43.6347 86.0526Z" fill="#EA9C00"/>
<path d="M50.4412 87.0997C51.0971 88.3686 51.3178 89.9935 50.7872 91.3481C50.5664 91.915 50.194 92.4719 49.6172 92.7191C48.9317 93.0125 48.2296 92.729 47.6594 92.3236C46.9508 91.8227 46.3378 91.2129 45.8072 90.5274C45.7017 90.389 45.7874 90.1715 45.9225 90.0924C46.084 89.9935 46.2521 90.0726 46.3576 90.2077C46.8421 90.8339 47.432 91.4107 48.0912 91.8523C48.3977 92.0567 48.7668 92.261 49.1491 92.2017C49.4524 92.1555 49.6995 91.9479 49.8775 91.7106C50.2961 91.1569 50.4247 90.4087 50.4379 89.7331C50.4511 88.9289 50.2631 88.1346 49.894 87.4194C49.7029 87.0569 50.25 86.7339 50.4412 87.0997Z" fill="#EA9C00"/>
<path d="M41.0435 64.1339C41.5444 64.7997 41.1028 65.739 40.4568 66.1115C39.7943 66.4938 38.9506 66.4015 38.4101 65.8544C38.1036 65.5446 37.9223 65.1326 37.9025 64.6975C37.8959 64.5261 38.0541 64.3811 38.2189 64.3811C38.3969 64.3811 38.5287 64.5261 38.5353 64.6975C38.5485 64.9909 38.6968 65.2842 38.9506 65.4918C39.0494 65.5742 39.1878 65.6434 39.323 65.6797C39.3559 65.6896 39.3922 65.6962 39.4284 65.7028C39.468 65.7094 39.4746 65.7094 39.4515 65.7061C39.4746 65.7094 39.4977 65.7094 39.524 65.7094C39.5603 65.7094 39.5966 65.7094 39.6328 65.7094C39.6493 65.7094 39.7581 65.6962 39.7251 65.7028C40.025 65.6566 40.2986 65.505 40.4568 65.2809C40.6447 65.0139 40.6842 64.7041 40.4963 64.4536C40.3941 64.3152 40.4733 64.0977 40.6117 64.0186C40.7699 63.923 40.938 63.9955 41.0435 64.1339Z" fill="#EA9C00"/>
<path d="M57.484 100.962C58.8979 102.122 59.9427 103.869 60.1471 105.705C60.2459 106.581 59.9196 107.432 59.0165 107.705C58.0541 107.999 57.0753 107.461 56.2744 106.98C55.2659 106.377 54.3496 105.625 53.552 104.769C53.2752 104.469 53.7234 104.017 54.0002 104.32C54.7781 105.157 55.658 105.879 56.6402 106.463C57.1115 106.743 57.6224 107.043 58.1695 107.135C58.6277 107.211 59.1814 107.095 59.4121 106.647C59.6329 106.219 59.5209 105.665 59.4187 105.22C59.3066 104.736 59.1418 104.261 58.9243 103.809C58.4761 102.88 57.8301 102.069 57.0325 101.413C56.7194 101.15 57.1709 100.701 57.484 100.962Z" fill="#EA9C00"/>
<path d="M51.9499 98.6465C52.4113 99.1441 52.8826 99.6682 53.1001 100.327C53.2715 100.851 53.2419 101.484 52.9452 101.959C52.1443 103.231 50.5031 102.476 49.5341 101.87C48.865 101.451 48.2487 100.95 47.6983 100.387C47.4115 100.093 47.8597 99.6451 48.1465 99.9384C48.6507 100.456 49.2077 100.914 49.8208 101.303C50.3712 101.652 51.0435 102.074 51.7258 102.021C52.3454 101.975 52.619 101.398 52.5629 100.832C52.4937 100.139 51.9499 99.5825 51.5017 99.098C51.2215 98.7948 51.6697 98.3465 51.9499 98.6465Z" fill="#EA9C00"/>
<path d="M84.8034 57.764C85.2253 58.4166 85.6373 59.145 85.4528 59.9525C85.2847 60.6874 84.6419 61.0994 83.9036 61.0434C83.1225 60.9808 82.3348 60.6742 81.6229 60.3611C80.855 60.0217 80.1431 59.58 79.4773 59.0626C79.1543 58.8121 79.6059 58.3639 79.9256 58.6143C80.9638 59.4218 82.1767 60.0118 83.4555 60.3249C84.0092 60.46 84.6584 60.4864 84.8298 59.8206C84.9913 59.1911 84.5793 58.588 84.253 58.087C84.0322 57.7409 84.5826 57.4212 84.8034 57.764Z" fill="#EA9C00"/>
<path d="M77.2557 55.6148C77.7072 55.7566 78.1456 55.9906 78.4257 56.3861C78.6894 56.7618 78.7224 57.2595 78.4949 57.6616C78.2807 58.0406 77.8721 58.3043 77.4535 58.4031C76.9756 58.5185 76.5009 58.4097 76.0758 58.1757C75.5682 57.8956 75.1661 57.4605 74.7838 57.0321C74.5135 56.7289 74.9618 56.2773 75.2321 56.5838C75.7759 57.1936 76.5932 58.1263 77.5062 57.7143C77.816 57.5759 78.0731 57.299 78.0006 56.9662C77.9116 56.5608 77.4436 56.3366 77.0876 56.2246C76.6954 56.1059 76.8635 55.4929 77.2557 55.6148Z" fill="#EA9C00"/>
<path d="M74.3198 110.065C75.4009 110.322 76.1655 111.238 76.7027 112.161C77.2663 113.133 77.4608 114.402 76.3732 115.088C75.3119 115.757 73.8848 115.299 72.807 114.897C71.6403 114.462 70.5691 113.839 69.6035 113.054C69.2871 112.797 69.7386 112.349 70.0517 112.606C70.8361 113.242 71.7128 113.769 72.6455 114.155C73.1004 114.343 73.5717 114.498 74.0496 114.62C74.567 114.752 75.1339 114.867 75.6579 114.715C76.0831 114.59 76.472 114.287 76.5412 113.825C76.6203 113.321 76.3501 112.804 76.0963 112.385C75.6414 111.64 75.0383 110.889 74.1518 110.681C73.753 110.586 73.9243 109.973 74.3198 110.065Z" fill="#EA9C00"/>
<path d="M67.5954 110.86C67.9712 111.769 68.3271 112.771 67.9283 113.737C67.5823 114.577 66.7748 114.956 65.8915 114.841C64.9126 114.716 63.9436 114.218 63.0735 113.776C62.1013 113.282 61.1785 112.695 60.3117 112.03C59.992 111.786 60.3083 111.232 60.6313 111.479C62.0222 112.544 63.5976 113.476 65.2686 114.037C66.0201 114.291 66.9495 114.383 67.3285 113.523C67.6911 112.699 67.2989 111.792 66.9825 111.024C66.8276 110.652 67.4405 110.487 67.5954 110.86Z" fill="#EA9C00"/>
<path opacity="0.6" d="M75.7049 65.1431C77.7714 66.0033 79.5314 67.4634 81.1002 69.0586C81.6407 69.609 82.1714 70.1923 82.4548 70.9108C82.735 71.626 82.7218 72.5093 82.2274 73.0993C81.532 73.9364 80.1807 73.8738 79.2282 73.3465C78.2757 72.8159 77.5736 71.9424 76.7365 71.2437C74.8315 69.6584 72.1586 69.0421 69.7526 69.6386C68.7309 69.8924 67.7191 70.3506 66.671 70.255C62.6599 69.8792 66.5787 65.7528 68.2002 64.9388C70.336 63.8676 73.5989 64.2697 75.7049 65.1431Z" fill="white"/>
<path d="M52.6506 126.126C52.5845 119.497 63.2408 114.789 68.3583 113.397C73.4758 112.005 81.3523 114.095 83.3308 121.798C85.3092 129.501 82.2528 136.047 75.9003 136.898C67.3381 138.042 52.7291 134.098 52.6506 126.126Z" fill="#FFE8AE"/>
<path d="M75.9043 136.895C69.2586 137.787 58.9823 135.615 54.6661 130.873C59.6927 133.471 66.768 134.545 71.7781 133.872C78.1306 133.021 81.1912 126.474 79.2086 118.771C78.7254 116.888 77.8869 115.343 76.8254 114.1C79.7662 115.388 82.3187 117.858 83.3307 121.799C85.3132 129.498 82.2568 136.044 75.9043 136.895Z" fill="#EDD7A4"/>
<path opacity="0.6" d="M56.5541 122.765C57.2439 121.79 58.2806 121.117 59.3421 120.572C60.259 120.101 61.2131 119.701 62.192 119.378C63.1668 119.056 64.2118 118.813 65.2154 119.027C66.2191 119.242 67.1649 120.031 67.2599 121.055C67.2847 121.316 67.2517 121.584 67.1237 121.807C66.9626 122.088 66.6776 122.265 66.3926 122.414C64.8024 123.257 62.8942 123.6 61.6221 124.876C60.796 125.706 60.2095 126.937 59.0695 127.197C56.3559 127.821 55.2118 124.669 56.5541 122.765Z" fill="white"/>
<path d="M95.3325 109.515C101.491 111.973 101.805 123.616 101.152 128.882C100.5 134.149 95.5762 140.637 87.6996 139.547C79.8231 138.456 74.9245 133.145 76.5477 126.941C78.7327 118.581 87.9268 106.562 95.3325 109.515Z" fill="#FFE8AE"/>
<path d="M76.5425 126.941C78.2401 120.452 84.1506 111.77 90.1726 109.577C85.8606 113.241 82.1846 119.383 80.9042 124.273C79.2809 130.473 84.1754 135.788 92.0561 136.879C93.9808 137.147 95.7321 136.957 97.2852 136.449C94.9763 138.68 91.7215 140.104 87.6944 139.547C79.8179 138.456 74.9193 133.145 76.5425 126.941Z" fill="#EDD7A4"/>
<path opacity="0.6" d="M96.9603 114.401C97.6005 115.409 97.8276 116.624 97.9309 117.817C98.0217 118.846 98.03 119.878 97.9557 120.907C97.8813 121.931 97.712 122.988 97.1338 123.839C96.5555 124.686 95.4651 125.26 94.4821 124.963C94.2343 124.888 93.9947 124.752 93.8378 124.55C93.6395 124.294 93.5858 123.963 93.5528 123.641C93.3793 121.848 93.7799 119.953 93.086 118.292C92.6317 117.21 91.7148 116.206 91.9089 115.05C92.3591 112.299 95.7088 112.435 96.9603 114.401Z" fill="white"/>
<path d="M53.6913 36.3653C53.6641 35.0564 52.876 33.9871 51.5245 33.8488C50.2595 33.7204 49.1798 34.5279 48.9253 35.7578C48.8339 36.1998 48.1594 36.0121 48.2508 35.5725C48.572 34.0192 49.9605 33.0536 51.5245 33.1499C53.2639 33.2561 54.3559 34.6983 54.3905 36.3628C54.4004 36.8172 53.7012 36.8147 53.6913 36.3653Z" fill="#564336"/>
</svg>
