<svg width="22" height="22" viewBox="0 0 22 22" fill="none" xmlns="http://www.w3.org/2000/svg">
<g clip-path="url(#clip0)">
<path d="M19.5857 21.9853H2.414C1.96417 21.9853 1.59961 21.6207 1.59961 21.1709V8.0401H20.4003V21.1709C20.4003 21.6207 20.0356 21.9853 19.5857 21.9853Z" fill="#FFC022"/>
<path d="M22 5.1917V8.57683C22 8.93837 21.7066 9.23126 21.3451 9.23126H0.654434C0.292892 9.23126 0 8.93837 0 8.57683V5.1917C0 4.83015 0.292892 4.53726 0.654434 4.53726H21.3451C21.7066 4.53726 22 4.83015 22 5.1917Z" fill="#FFA21A"/>
<path d="M16.9095 9.23123H12.4473C12.3263 9.01437 12.2006 8.80003 12.0708 8.58787C11.649 7.89802 11.1819 7.23335 10.6727 6.59906C10.5354 6.42853 10.3952 6.25984 10.2522 6.09351C10.3111 6.04315 10.3695 5.99263 10.4284 5.94228C10.9095 5.52786 11.3902 5.11362 11.8707 4.70021C11.9339 4.646 11.997 4.59128 12.0601 4.53723C12.4673 4.18643 12.8746 3.83597 13.2815 3.48517C13.3923 3.61374 13.5015 3.74348 13.609 3.8744C13.7887 4.09244 13.964 4.31349 14.1345 4.53723C14.8505 5.47415 15.4914 6.4621 16.0533 7.49167C16.363 8.05916 16.6488 8.63974 16.9095 9.23123Z" fill="#EFB025"/>
<path d="M10.9995 6.09388C10.8565 6.26005 10.7164 6.42873 10.5796 6.59927C10.07 7.23356 9.60323 7.89823 9.18143 8.58825C7.84235 10.7771 6.95293 13.2223 6.57779 15.7817C6.01399 15.0339 5.49367 14.2249 5.02554 13.3598C4.20209 13.8969 3.39726 14.5112 2.62231 15.2024C3.02028 12.4877 3.89711 9.87832 5.19943 7.49188C5.89499 6.21658 6.7124 5.00489 7.64328 3.87495C7.7507 3.74369 7.85997 3.61445 7.97075 3.48537C8.44106 3.89039 8.91103 4.2954 9.3815 4.70042C9.86205 5.11433 10.3428 5.52807 10.8235 5.94248C10.8822 5.9925 10.9406 6.04336 10.9995 6.09388Z" fill="#EF5C3F"/>
<path d="M19.3771 15.2024C18.6021 14.5112 17.7973 13.8969 16.9738 13.3598C16.5057 14.2249 15.9854 15.0339 15.4216 15.7817C15.0465 13.2223 14.1572 10.7771 12.818 8.58825C12.3962 7.89823 11.929 7.23356 11.4198 6.59927C11.2825 6.42873 11.1423 6.26005 10.9995 6.09388C11.0583 6.04336 11.1167 5.99284 11.1756 5.94248C11.6566 5.52807 12.1373 5.11382 12.6181 4.70042C13.0884 4.2949 13.5588 3.89039 14.0286 3.48537C14.1394 3.61395 14.2487 3.74369 14.3561 3.87461C15.2872 5.00455 16.1046 6.21624 16.8005 7.49188C18.1024 9.87832 18.9791 12.4877 19.3771 15.2024Z" fill="#EF5C3F"/>
<path d="M9.24829 6.09383H12.7514V9.23122H9.24829V6.09383Z" fill="#EF5C3F"/>
<path d="M16.8005 7.49192L12.818 8.58829C12.3962 7.89828 11.929 7.2336 11.4198 6.59931L11.1756 5.94253L10.9995 5.46886L12.6181 4.70046L14.3561 3.87466C15.2872 5.0046 16.1046 6.21629 16.8005 7.49192Z" fill="#D35133"/>
<path d="M10.9998 5.46883L10.8237 5.9425L10.5799 6.59928C10.0703 7.23357 9.6035 7.89825 9.1817 8.58826L5.19971 7.49189C5.89526 6.21659 6.71268 5.00491 7.64356 3.87496L9.38178 4.70043L10.9998 5.46883Z" fill="#D35133"/>
<path d="M17.3556 0.15221L10.9998 3.1706L12.2207 6.45418L19.0047 4.58689C19.8919 4.34267 20.3794 3.39048 20.0586 2.52791L19.4987 1.02233C19.1781 0.159763 18.187 -0.242565 17.3556 0.15221Z" fill="#EF5C3F"/>
<path d="M4.64406 0.15221L10.9999 3.1706L9.77899 6.45418L2.99513 4.58689C2.10789 4.34267 1.62047 3.39048 1.94122 2.52791L2.50099 1.02233C2.82174 0.159763 3.81271 -0.242565 4.64406 0.15221Z" fill="#EF5C3F"/>
<path d="M11.9967 2.04202H10.0034C9.4579 2.04202 9.01562 2.48429 9.01562 3.02996V5.92582C9.01562 6.47149 9.4579 6.91376 10.0034 6.91376H11.9967C12.5423 6.91376 12.9845 6.47149 12.9845 5.92582V3.02996C12.9845 2.48429 12.5423 2.04202 11.9967 2.04202Z" fill="#D35133"/>
<path d="M9.24829 9.23117H12.7514V21.9853H9.24829V9.23117Z" fill="#EF5C3F"/>
</g>
<defs>
<clipPath id="clip0">
<rect width="22" height="22" fill="white"/>
</clipPath>
</defs>
</svg>
