<svg width="70" height="70" viewBox="0 0 70 70" fill="none" xmlns="http://www.w3.org/2000/svg">
<path d="M41.1327 12.4714C41.1375 6.96283 37.6671 2.26354 32.7926 0.445587C32.0697 0.175978 31.2857 0.104474 30.5292 0.255822C30.5256 0.256505 30.5219 0.257326 30.5184 0.258009C24.7025 1.42613 20.3621 6.55692 20.3674 12.7169L20.3685 17.0456H20.4659V19.419H20.3692L20.3745 40.2547H41.1268L41.1327 12.4714Z" fill="#F6D870"/>
<path d="M49.6312 17.0457C49.6313 16.5788 49.6321 13.1376 49.6323 12.717C49.6383 5.69554 43.948 0.000385379 36.9266 0.000385379C36.9129 0.000385379 33.1514 -0.000298215 33.0026 0.00134241C32.1521 0.00599085 31.3214 0.0941744 30.5183 0.2581C36.313 1.44277 40.6709 6.57205 40.6656 12.717L40.6585 40.2548H49.625L49.6303 19.4191H49.5337V17.0457H49.6312Z" fill="#E0C562"/>
<path d="M56.1688 55.744L52.5065 44.4365C51.7053 41.9627 49.689 40.0742 47.168 39.4366L35.3904 36.4575C34.3186 36.1864 33.5149 35.298 33.352 34.2045L32.1653 26.2336H29.6319L28.4452 34.2045C28.2824 35.2978 27.4786 36.1864 26.4069 36.4575L14.6292 39.4366C12.1083 40.0742 10.0919 41.9627 9.29076 44.4365L5.62848 55.744C4.82936 58.2112 5.35696 60.9159 7.02451 62.9019L9.87852 66.301H51.9188L54.7729 62.9019C56.4404 60.9158 56.9679 58.2111 56.1688 55.744Z" fill="#756E78"/>
<path d="M64.3711 55.744L60.7088 44.4365C59.9076 41.9627 57.8913 40.0742 55.3704 39.4366L43.5927 36.4575C42.521 36.1864 41.7172 35.298 41.5544 34.2045L40.3677 26.2336H31.4617L32.6484 34.2045C32.8112 35.2978 33.615 36.1864 34.6867 36.4575L46.4644 39.4366C48.9853 40.0742 51.0017 41.9627 51.8028 44.4365L55.4651 55.744C56.2642 58.2112 55.7366 60.9159 54.0691 62.9019L51.2151 66.301H60.1211L62.9751 62.9019C64.6426 60.9158 65.1701 58.2111 64.3711 55.744Z" fill="#665E66"/>
<path d="M51.5249 38.4638L43.5926 36.4575C42.5208 36.1863 41.7171 35.298 41.5542 34.2045L40.3675 26.2336H29.632L28.4452 34.2045C28.2824 35.2978 27.4786 36.1863 26.4069 36.4575L18.4746 38.4638H51.5249Z" fill="#FAEFDB"/>
<path d="M24.633 15.0383H22.3766C21.2678 15.0383 20.3689 15.9373 20.3689 17.046V19.4195C20.3689 20.5292 21.2685 21.4287 22.3781 21.4287H24.633V15.0383Z" fill="#F6E2BF"/>
<path d="M45.3682 15.0383H47.6246C48.7334 15.0383 49.6323 15.9373 49.6323 17.046V19.4195C49.6323 20.5292 48.7327 21.4287 47.6231 21.4287H45.3682V15.0383Z" fill="#F6E2BF"/>
<path d="M40.0497 15.038C35.767 15.038 32.0576 12.5836 30.2511 9.00483C30.1769 8.85758 29.9547 8.91158 29.9547 9.07647C29.9547 11.1822 28.2477 12.8893 26.1419 12.8893C25.0174 12.8893 24.1073 13.8037 24.1123 14.9282L24.138 20.5952C24.138 27.8161 31.7183 31.8489 35 31.919C38.2818 31.8488 45.8621 27.8161 45.8621 20.5952L45.876 15.038H40.0497Z" fill="#FAEFDB"/>
<path d="M40.6641 15.0383L40.6525 20.5955C40.6525 26.2587 35.9902 29.9608 32.3955 31.3284C33.3843 31.7046 34.2922 31.9042 35 31.9194C38.2818 31.8491 45.862 27.8165 45.862 20.5955L45.876 15.0383H40.6641Z" fill="#F6E2BF"/>
<path d="M41.9707 37.1501H19.7847C17.932 37.1501 16.4302 38.652 16.4302 40.5047V61.3025H45.3251V40.5045C45.3253 38.6519 43.8234 37.1501 41.9707 37.1501Z" fill="#F7F4F7"/>
<path d="M50.2165 37.1501H41.3118C43.1644 37.1501 44.6663 38.652 44.6663 40.5047V61.3025H53.5711V40.5045C53.5711 38.6519 52.0692 37.1501 50.2165 37.1501Z" fill="#EDEAED"/>
<path d="M56.8484 61.0698H13.1528C12.5269 61.0698 12.0195 61.5772 12.0195 62.2031C12.0195 64.5071 13.8874 66.3749 16.1914 66.3749H53.8098C56.1139 66.3749 57.9816 64.5071 57.9816 62.2031C57.9816 61.5772 57.4743 61.0698 56.8484 61.0698Z" fill="#C1BCC4"/>
<path d="M56.8482 61.0698H49.0767V66.3751H53.8096C56.1136 66.3751 57.9814 64.5072 57.9814 62.2032C57.9814 61.5772 57.4741 61.0698 56.8482 61.0698Z" fill="#B2AAB5"/>
<path d="M35.0001 53.0047C37.0868 53.0047 38.7784 51.3131 38.7784 49.2265C38.7784 47.1398 37.0868 45.4482 35.0001 45.4482C32.9135 45.4482 31.2219 47.1398 31.2219 49.2265C31.2219 51.3131 32.9135 53.0047 35.0001 53.0047Z" fill="#036095"/>
<path d="M2.53658 65.0813C1.17828 65.0813 0.0771484 66.1824 0.0771484 67.5406C0.0771484 68.8989 1.17828 70 2.53658 70H59.8194C60.6276 69.9992 61.2826 69.3439 61.2826 68.5356V65.4823L61.0187 65.0813H2.53658Z" fill="#B58C8C"/>
<path d="M67.4638 65.0813H61.0183V68.5356C61.0183 69.3444 60.3626 70 59.554 70H67.4638C68.8221 70 69.9231 68.8989 69.9231 67.5406C69.9231 66.1824 68.8221 65.0813 67.4638 65.0813Z" fill="#A87F7F"/>
</svg>
