<svg width="24" height="24" viewBox="0 0 24 24" fill="none" xmlns="http://www.w3.org/2000/svg">
<path d="M0 12C0 18.6274 5.37256 24 12 24C18.6274 24 24 18.6274 24 12C24 5.37261 18.6274 4.95911e-05 12 4.95911e-05C5.37569 0.00748444 0.00748369 5.37569 0 12Z" fill="white"/>
<path d="M5.11282 9.80878C4.21825 10.7449 4.21825 12.2191 5.11282 13.1552C6.03635 14.0793 7.53416 14.0798 8.45823 13.1562C8.45857 13.1559 8.45891 13.1556 8.45925 13.1552L9.39838 12.2161V18.261C9.39838 19.7017 10.5663 20.8696 12.0071 20.8696C13.4478 20.8696 14.6158 19.7017 14.6158 18.261V12.2161L15.5549 13.1552C16.5417 14.0123 18.0365 13.9071 18.8936 12.9202C19.6692 12.0271 19.6664 10.6985 18.8868 9.80878L13.1028 4.02477C12.4915 3.41375 11.5008 3.41375 10.8895 4.02477L5.11282 9.80878Z" fill="#2790CB"/>
</svg>
