<svg width="100" height="100" viewBox="0 0 100 100" fill="none" xmlns="http://www.w3.org/2000/svg">
<path d="M100 28.0684V81.9919C100 86.4366 96.3964 90.0402 91.9517 90.0402H8.04829C3.60362 90.0402 0 86.4366 0 81.9919V28.0684H100Z" fill="#F5F5F5"/>
<path d="M100 32.0926V28.0685L50 26.0564L0 28.0685V32.0926V81.992C0 86.4367 3.60362 90.0403 8.04829 90.0403H12.0724C7.62777 90.0403 4.02414 86.4367 4.02414 81.992V32.0926H100Z" fill="#E6E6E6"/>
<path d="M100 18.008V28.0684H0V18.008C0 13.5633 3.60362 9.95972 8.04829 9.95972H91.9517C96.3964 9.95972 100 13.5633 100 18.008Z" fill="#50758D"/>
<path d="M95.4728 19.0145C95.4728 16.5183 93.442 14.4873 90.9456 14.4873H48.0885C46.8038 14.4873 45.6434 15.0259 44.8187 15.8883C43.8595 16.8455 44.3098 16.3952 43.3527 17.3543C42.4903 18.1791 41.9517 19.3394 41.9517 20.6241C41.9517 23.1203 43.9824 25.1513 46.4788 25.1513H89.336C90.6207 25.1513 91.781 24.6127 92.6058 23.7503C93.5649 22.7931 93.1146 23.2434 94.0718 22.2843C94.9342 21.4595 95.4728 20.2992 95.4728 19.0145Z" fill="#2B597F"/>
<path d="M13.7323 18.9639C13.7323 16.4678 11.7016 14.4368 9.20518 14.4368C7.92047 14.4368 6.76011 14.9754 5.93536 15.8378C4.97621 16.7949 5.42651 16.3446 4.46936 17.3038C3.60699 18.1285 3.06836 19.2889 3.06836 20.5736C3.06836 23.0698 5.09914 25.1007 7.59552 25.1007C8.88023 25.1007 10.0406 24.5621 10.8653 23.6997C11.8245 22.7426 11.3742 23.1929 12.3313 22.2337C13.1937 21.409 13.7323 20.2486 13.7323 18.9639Z" fill="#2B597F"/>
<path d="M26.6601 18.9639C26.6601 16.4678 24.6293 14.4368 22.1329 14.4368C20.8482 14.4368 19.6878 14.9754 18.8631 15.8378C17.9039 16.7949 18.3542 16.3446 17.3971 17.3038C16.5347 18.1285 15.9961 19.2889 15.9961 20.5736C15.9961 23.0698 18.0269 25.1007 20.5233 25.1007C21.808 25.1007 22.9683 24.5621 23.7931 23.6997C24.7522 22.7426 24.3019 23.1929 25.2591 22.2337C26.1214 21.409 26.6601 20.2486 26.6601 18.9639Z" fill="#2B597F"/>
<path d="M39.5373 18.9639C39.5373 16.4678 37.5065 14.4368 35.0101 14.4368C33.7254 14.4368 32.565 14.9754 31.7403 15.8378C30.7811 16.7949 31.2314 16.3446 30.2743 17.3038C29.4119 18.1285 28.8733 19.2889 28.8733 20.5736C28.8733 23.0698 30.9041 25.1007 33.4005 25.1007C34.6852 25.1007 35.8455 24.5621 36.6703 23.6997C37.6294 22.7426 37.1791 23.1929 38.1363 22.2337C38.9986 21.409 39.5373 20.2486 39.5373 18.9639Z" fill="#2B597F"/>
<path d="M9.20539 23.4911C6.70901 23.4911 4.67822 21.4601 4.67822 18.9639C4.67822 16.4678 6.70901 14.4368 9.20539 14.4368C11.7018 14.4368 13.7325 16.4678 13.7325 18.9639C13.7325 21.4601 11.7018 23.4911 9.20539 23.4911Z" fill="#FD646F"/>
<path d="M22.1329 23.5411C19.6365 23.5411 17.6057 21.5102 17.6057 19.014C17.6057 16.5178 19.6365 14.4868 22.1329 14.4868C24.6292 14.4868 26.66 16.5178 26.66 19.014C26.66 21.5102 24.6292 23.5411 22.1329 23.5411Z" fill="#FFC682"/>
<path d="M35.0101 23.5411C32.5137 23.5411 30.4829 21.5102 30.4829 19.014C30.4829 16.5178 32.5137 14.4868 35.0101 14.4868C37.5064 14.4868 39.5372 16.5178 39.5372 19.014C39.5372 21.5102 37.5064 23.5411 35.0101 23.5411Z" fill="#93DDB7"/>
<path d="M90.9456 23.5411H48.0884C45.5921 23.5411 43.5613 21.5102 43.5613 19.014C43.5613 16.5178 45.5921 14.4868 48.0884 14.4868H90.9456C93.442 14.4868 95.4727 16.5178 95.4727 19.014C95.4727 21.5102 93.442 23.5411 90.9456 23.5411Z" fill="#F5F5F5"/>
<path d="M43.6006 76.8419C43.1783 76.8419 42.7493 76.7568 42.3374 76.5769C40.7383 75.8783 40.0081 74.0157 40.7067 72.4163L53.5012 43.1238C54.1998 41.5248 56.0622 40.795 57.6618 41.493C59.261 42.1916 59.9912 44.0542 59.2926 45.6536L46.498 74.9461C45.9793 76.1336 44.8187 76.8419 43.6006 76.8419Z" fill="#50758D"/>
<path d="M30.9621 75.7032C30.1535 75.7032 29.3446 75.3948 28.7277 74.7779L16.8782 62.9284C15.6444 61.6944 15.6444 59.6936 16.8782 58.4596L28.5698 46.768C29.8038 45.534 31.8046 45.534 33.0386 46.768C34.2724 48.002 34.2724 50.0028 33.0386 51.2368L23.5815 60.694L33.1967 70.3091C34.4305 71.5431 34.4305 73.5439 33.1967 74.7779C32.5796 75.3948 31.7708 75.7032 30.9621 75.7032Z" fill="#50758D"/>
<path d="M69.0374 75.7032C69.8461 75.7032 70.6549 75.3948 71.2718 74.7779L83.1213 62.9284C84.3551 61.6944 84.3551 59.6936 83.1213 58.4596L71.4298 46.768C70.1958 45.534 68.1949 45.534 66.9609 46.768C65.7271 48.002 65.7271 50.0028 66.9609 51.2368L76.4181 60.694L66.8028 70.3091C65.569 71.5431 65.569 73.5439 66.8028 74.7779C67.4199 75.3948 68.2288 75.7032 69.0374 75.7032Z" fill="#50758D"/>
</svg>
