<svg width="100" height="100" viewBox="0 0 100 100" fill="none" xmlns="http://www.w3.org/2000/svg">
<g clip-path="url(#clip0)">
<path d="M47.4582 5.27539V26.4617H47.3515C45.6939 26.4617 44.0705 26.6148 42.4975 26.9108C41.8167 27.0377 41.144 27.1928 40.4834 27.3721C29.3635 30.3892 21.1863 40.5523 21.1863 52.6268C21.1863 57.3781 22.4532 61.8373 24.6687 65.6782L18.9325 76.4134L6.31823 76.2724C2.29809 69.3157 0 61.2391 0 52.6268C0 28.8061 17.5851 9.09614 40.4834 5.77086C41.15 5.67418 41.8207 5.5916 42.4975 5.52313C44.0926 5.35797 45.712 5.27539 47.3515 5.27539H47.4582Z" fill="#2EDFFC"/>
<path d="M47.4584 19.4143V26.4616H47.3517C32.9005 26.4616 21.1865 38.1756 21.1865 52.6268C21.1865 57.3781 22.4534 61.8373 24.6689 65.6782L18.5239 69.225C15.7081 64.3469 14.0989 58.6832 14.0989 52.6469C14.0989 34.2925 28.977 19.4143 47.3315 19.4143H47.4584Z" fill="#27BDF3"/>
<path d="M55.6971 99.2453C52.9896 99.7263 50.1992 99.9784 47.3517 99.9784C29.8115 99.9784 14.4999 90.4425 6.31787 76.2729L24.6695 65.6775C29.1886 73.5166 37.6546 78.7919 47.3517 78.7919C48.9449 78.7919 50.5022 78.6499 52.017 78.3766L60.8258 88.6995L55.6971 99.2453Z" fill="#FAD207"/>
<path d="M53.2467 85.3537C51.3273 85.7001 49.3495 85.8794 47.3313 85.8794C35.0151 85.8794 24.2639 79.1805 18.5237 69.2248L24.6687 65.678C29.1883 73.5168 37.6556 78.7918 47.3515 78.7918C48.9446 78.7918 50.5015 78.6488 52.0161 78.3769L53.2467 85.3537Z" fill="#FAA515"/>
<path d="M83.7203 82.9491L83.7183 82.9511L83.7163 82.9531C82.6548 84.226 81.529 85.4405 80.3406 86.5926L80.3386 86.5946C79.8552 87.0679 79.3598 87.5272 78.8562 87.9763C78.6649 88.1475 78.4716 88.3167 78.2782 88.4838C71.9801 93.9219 64.2339 97.7265 55.6981 99.2452L52.0164 78.3771C55.4907 77.7527 58.7273 76.4416 61.5813 74.5866C61.8391 74.4194 62.0969 74.2462 62.3487 74.069C62.9005 73.6822 63.4363 73.2754 63.9559 72.8484C63.958 72.8464 63.958 72.8464 63.96 72.8464C65.2409 71.795 66.4192 70.6208 67.4766 69.3499C67.4806 69.3459 67.4846 69.3398 67.4887 69.3358L67.4907 69.3338L67.4927 69.3318L72.109 73.2049L82.4796 81.9078L83.7203 82.9491Z" fill="#FD646F"/>
<path d="M72.9046 73.8716C68.0063 79.7689 61.106 83.9421 53.247 85.354L52.0164 78.3771C58.2037 77.2653 63.6357 73.9763 67.4927 69.3318L71.5491 72.7356L72.9046 73.8716Z" fill="#FC4755"/>
<path d="M47.4583 5.27539L51.561 13.9763L47.4583 26.4617H47.3515C45.6939 26.4617 44.0706 26.6148 42.4976 26.9108V5.52312C44.0927 5.35797 45.7121 5.27539 47.3515 5.27539H47.4583Z" fill="#27BDF3"/>
<path d="M83.7201 82.9491L83.718 82.9511L83.716 82.9531C82.6546 84.226 81.5287 85.4405 80.3404 86.5926L63.9597 72.8463C65.2407 71.795 66.4189 70.6207 67.4763 69.3499C67.4804 69.3458 67.4844 69.3398 67.4884 69.3358L67.4904 69.3337L79.1541 73.3922L82.4794 81.9078L83.7201 82.9491Z" fill="#FC4755"/>
<path d="M99.9999 52.6264C99.9999 64.7027 95.932 75.8298 89.096 84.713C88.3961 85.6225 87.0799 85.768 86.2007 85.0302L71.5485 72.7343L67.4913 69.3317C71.2541 64.8 73.5167 58.9758 73.5167 52.6262C73.5167 38.2108 61.8599 26.5182 47.4573 26.461V2.03743C47.4573 0.890197 48.4144 -0.0235995 49.5606 0.0237318C77.6126 1.18164 99.9999 24.291 99.9999 52.6264Z" fill="#50758D"/>
<path d="M80.5642 52.6469C80.5642 60.7154 77.6881 68.1152 72.9046 73.8715L71.5491 72.7355L67.4927 69.3317C71.2551 64.8 73.5169 58.9752 73.5169 52.6268C73.5169 38.2119 61.8613 26.518 47.4585 26.4616V19.4143C65.7546 19.4828 80.5642 34.3347 80.5642 52.6469Z" fill="#2B597F"/>
</g>
<defs>
<clipPath id="clip0">
<rect width="100" height="100" fill="white"/>
</clipPath>
</defs>
</svg>
