<svg width="70" height="70" viewBox="0 0 70 70" fill="none" xmlns="http://www.w3.org/2000/svg">
<g clip-path="url(#clip0)">
<path d="M5.51602 35.805L7.67909 37.9681L20.9828 51.8846L31.5913 60.2597L38.814 56.7849C43.7428 61.3361 50.5077 54.5631 45.9587 49.6402L29.1345 29.2159L5.50276 9.18433C-1.83859 16.5402 -1.83433 28.4547 5.51602 35.805Z" fill="#F6E2BF"/>
<path d="M34.4116 11.4317L32.1503 9.17044C24.7916 1.81078 12.8539 1.81646 5.50293 9.18418L45.9588 49.64C50.8877 54.1875 57.6521 47.4272 53.1035 42.4953C56.8303 46.1455 62.8898 42.5234 61.5426 37.5692L56.4933 17.267L34.4116 11.4317Z" fill="#F6E2BF"/>
<path d="M37.7607 8.0827C36.1636 9.67977 31.1378 14.7057 29.4636 16.3798L32.4817 19.3979C35.7442 22.6624 41.0352 22.6552 44.2948 19.3979L49.6202 24.7233L58.7265 18.8309L65.2268 9.11677C58.89 1.89229 47.3793 -0.804872 37.7607 8.0827Z" fill="#EFC695"/>
<path d="M49.6201 24.723L60.2478 35.3507C60.8865 35.9894 61.3171 36.7569 61.5423 37.5694L64.3949 34.7168C72.4695 25.9734 70.982 15.6778 65.2267 9.11646L49.6201 24.723Z" fill="#EFC695"/>
<path d="M22.8826 51.4602C22.8087 51.5264 22.7359 51.5946 22.6652 51.6658C22.6023 51.7359 22.5377 51.8051 22.4705 51.8725L22.8826 51.4602Z" fill="#FFD8C1"/>
<path d="M22.4705 51.8725C22.5379 51.8051 22.6025 51.736 22.6652 51.6658C22.5988 51.7326 22.5338 51.8013 22.4705 51.8725Z" fill="#FFD8C1"/>
<path d="M20.6842 53.6587C20.6168 53.7261 20.5522 53.7951 20.4895 53.8654C20.5558 53.7986 20.6209 53.7299 20.6842 53.6587Z" fill="#FFD8C1"/>
<path d="M22.4342 53.5595C22.4342 53.5595 22.5987 51.733 22.6651 51.6662C24.4404 49.6825 24.3758 46.6336 22.4703 44.7281C20.4974 42.7552 17.2985 42.7552 15.3256 44.7281L16.04 44.0137C18.013 42.0408 18.013 38.842 16.04 36.8691C14.0671 34.8962 10.8684 34.8962 8.89531 36.8691L6.87105 38.8934C4.89813 40.8663 4.89813 44.065 6.87105 46.0381C8.84398 48.0112 12.0427 48.011 14.0156 46.0381L13.3012 46.7525C11.3283 48.7255 11.3283 51.9244 13.3012 53.8973C15.2928 55.9034 18.53 55.8375 20.4892 53.8659C20.5522 53.7956 22.4342 53.5595 22.4342 53.5595Z" fill="#EFC695"/>
<path d="M31.7584 56.8742L29.8532 58.7794C31.8261 56.8064 31.8261 53.6077 29.8532 51.6348C27.9337 49.7012 24.857 49.6931 22.8827 51.4606L22.4703 51.8729L20.6842 53.659C20.6209 53.7303 20.5558 53.7989 20.4895 53.8657C18.7141 55.8494 18.7787 58.8981 20.6842 60.8038C22.6572 62.7767 25.8559 62.7767 27.8288 60.8038L29.734 58.8986C27.7611 60.8715 27.7611 64.0702 29.734 66.0433C31.7069 68.0162 34.9056 68.0162 36.8787 66.0433L38.9031 64.0189C40.8761 62.046 40.8761 58.8473 38.9031 56.8742C36.93 54.9012 33.7313 54.9012 31.7584 56.8742Z" fill="#EFC695"/>
</g>
<defs>
<clipPath id="clip0">
<rect width="70" height="70" fill="white"/>
</clipPath>
</defs>
</svg>
