<svg width="22" height="20" viewBox="0 0 22 20" fill="none" xmlns="http://www.w3.org/2000/svg">
<g clip-path="url(#clip0)">
<path d="M10.7082 5.79141L3.66626 11.723V18.125C3.66626 18.2908 3.73065 18.4497 3.84525 18.5669C3.95986 18.6842 4.1153 18.75 4.27737 18.75L8.55744 18.7387C8.71899 18.7378 8.87364 18.6716 8.98759 18.5545C9.10153 18.4374 9.1655 18.2789 9.1655 18.1137V14.375C9.1655 14.2092 9.22988 14.0503 9.34449 13.9331C9.45909 13.8158 9.61453 13.75 9.77661 13.75H12.2211C12.3831 13.75 12.5386 13.8158 12.6532 13.9331C12.7678 14.0503 12.8322 14.2092 12.8322 14.375V18.1109C12.8319 18.1932 12.8475 18.2747 12.8781 18.3507C12.9087 18.4268 12.9537 18.4959 13.0105 18.5541C13.0673 18.6124 13.1347 18.6586 13.209 18.6901C13.2832 18.7217 13.3629 18.7379 13.4433 18.7379L17.7218 18.75C17.8839 18.75 18.0393 18.6842 18.1539 18.5669C18.2685 18.4497 18.3329 18.2908 18.3329 18.125V11.7188L11.2925 5.79141C11.2098 5.72317 11.1067 5.68597 11.0004 5.68597C10.894 5.68597 10.7909 5.72317 10.7082 5.79141ZM21.8315 9.82305L18.6385 7.13125V1.7207C18.6385 1.59638 18.5902 1.47715 18.5042 1.38925C18.4183 1.30134 18.3017 1.25195 18.1802 1.25195H16.0413C15.9197 1.25195 15.8031 1.30134 15.7172 1.38925C15.6312 1.47715 15.5829 1.59638 15.5829 1.7207V4.55703L12.1634 1.67969C11.8352 1.40351 11.4234 1.25251 10.9985 1.25251C10.5735 1.25251 10.1617 1.40351 9.83352 1.67969L0.16536 9.82305C0.118949 9.86228 0.080551 9.91048 0.0523604 9.96489C0.0241698 10.0193 0.00673901 10.0789 0.00106384 10.1402C-0.00461132 10.2015 0.00158043 10.2633 0.0192853 10.3222C0.0369902 10.381 0.0658612 10.4358 0.104249 10.4832L1.07821 11.6941C1.11649 11.7417 1.16358 11.7812 1.21678 11.8101C1.26997 11.8391 1.32824 11.8571 1.38823 11.863C1.44822 11.8689 1.50876 11.8627 1.56639 11.8446C1.62402 11.8266 1.67761 11.7971 1.72408 11.7578L10.7082 4.18984C10.7909 4.12161 10.894 4.0844 11.0004 4.0844C11.1067 4.0844 11.2098 4.12161 11.2925 4.18984L20.277 11.7578C20.3234 11.7971 20.3769 11.8266 20.4345 11.8447C20.492 11.8628 20.5525 11.8691 20.6124 11.8633C20.6724 11.8575 20.7306 11.8397 20.7838 11.8109C20.837 11.782 20.8842 11.7428 20.9225 11.6953L21.8965 10.4844C21.9348 10.4367 21.9636 10.3817 21.9811 10.3225C21.9986 10.2634 22.0045 10.2014 21.9984 10.1399C21.9924 10.0785 21.9745 10.0188 21.9459 9.96444C21.9173 9.91007 21.8784 9.86201 21.8315 9.82305Z" fill="white"/>
</g>
<defs>
<clipPath id="clip0">
<rect width="22" height="20" fill="white"/>
</clipPath>
</defs>
</svg>
