<svg width="23" height="20" viewBox="0 0 23 20" fill="none" xmlns="http://www.w3.org/2000/svg">
<path d="M23 8.43761V9.06261C23 9.58039 22.5709 10.0001 22.0417 10.0001H21.7222L20.6795 17.1403C20.5446 18.064 19.736 18.7501 18.7821 18.7501H4.21786C3.26404 18.7501 2.45537 18.064 2.32044 17.1403L1.27778 10.0001H0.958333C0.429054 10.0001 0 9.58039 0 9.06261V8.43761C0 7.91984 0.429054 7.50011 0.958333 7.50011H3.6473L7.91108 1.76492C8.32616 1.20663 9.12525 1.08316 9.69602 1.48921C10.2667 1.89527 10.3929 2.67702 9.97785 3.23535L6.80724 7.50011H16.1928L13.0222 3.23531C12.6071 2.67702 12.7333 1.89523 13.304 1.48917C13.8747 1.08312 14.6739 1.20656 15.089 1.76488L19.3527 7.50011H22.0417C22.5709 7.50011 23 7.91984 23 8.43761ZM12.4583 15.3126V10.9376C12.4583 10.4198 12.0293 10.0001 11.5 10.0001C10.9707 10.0001 10.5417 10.4198 10.5417 10.9376V15.3126C10.5417 15.8304 10.9707 16.2501 11.5 16.2501C12.0293 16.2501 12.4583 15.8304 12.4583 15.3126ZM16.9306 15.3126V10.9376C16.9306 10.4198 16.5015 10.0001 15.9722 10.0001C15.4429 10.0001 15.0139 10.4198 15.0139 10.9376V15.3126C15.0139 15.8304 15.4429 16.2501 15.9722 16.2501C16.5015 16.2501 16.9306 15.8304 16.9306 15.3126ZM7.98611 15.3126V10.9376C7.98611 10.4198 7.55706 10.0001 7.02778 10.0001C6.4985 10.0001 6.06944 10.4198 6.06944 10.9376V15.3126C6.06944 15.8304 6.4985 16.2501 7.02778 16.2501C7.55706 16.2501 7.98611 15.8304 7.98611 15.3126Z" fill="white"/>
</svg>
