<svg width="24" height="24" viewBox="0 0 24 24" fill="none" xmlns="http://www.w3.org/2000/svg">
<path d="M10.2856 10.9092H18.8571V20.0911C18.8571 20.6434 18.4094 21.0911 17.8571 21.0911H11.2856C10.7334 21.0911 10.2856 20.6434 10.2856 20.0911V10.9092Z" fill="white"/>
<path d="M13.7711 1.06961C14.171 0.535237 14.9723 0.535237 15.3722 1.06961L21.54 9.31003C22.0335 9.96938 21.563 10.9092 20.7394 10.9092H8.40383C7.58023 10.9092 7.10973 9.96938 7.60325 9.31003L13.7711 1.06961Z" fill="white"/>
<path d="M2.8374 18.3818H7.56647V22.9995C7.56647 23.5518 7.11875 23.9995 6.56647 23.9995H3.8374C3.28512 23.9995 2.8374 23.5518 2.8374 22.9995V18.3818Z" fill="white"/>
<path d="M4.40139 13.4329C4.80135 12.8985 5.60259 12.8985 6.00255 13.4329L8.51002 16.783C9.00354 17.4423 8.53303 18.3822 7.70944 18.3822H2.69451C1.87091 18.3822 1.4004 17.4423 1.89392 16.783L4.40139 13.4329Z" fill="white"/>
</svg>
