<svg width="30" height="30" viewBox="0 0 30 30" fill="none" xmlns="http://www.w3.org/2000/svg">
<path d="M15 30C23.2843 30 30 23.2843 30 15C30 6.71573 23.2843 0 15 0C6.71573 0 0 6.71573 0 15C0 23.2843 6.71573 30 15 30Z" fill="#036095"/>
<path d="M19.3945 9.72656C19.3945 7.30342 17.4231 5.33203 15 5.33203C12.5769 5.33203 10.6055 7.30342 10.6055 9.72656C10.6055 12.1497 12.5769 14.1211 15 14.1211C17.4231 14.1211 19.3945 12.1497 19.3945 9.72656ZM15 14.1211C10.6383 14.1211 7.08984 17.6696 7.08984 22.0312V22.855C7.08984 23.1048 7.19613 23.3428 7.38223 23.5095C9.52312 25.4279 12.2285 26.4844 15 26.4844C17.7715 26.4844 20.4769 25.4279 22.6178 23.5095C22.8039 23.3428 22.9102 23.1047 22.9102 22.855V22.0312C22.9102 17.6696 19.3617 14.1211 15 14.1211Z" fill="white"/>
</svg>
